<?xml version="1.0" encoding="UTF-8"?>
<svg id="Capa_1" xmlns="http://www.w3.org/2000/svg" xmlns:xlink="http://www.w3.org/1999/xlink" version="1.1" viewBox="0 0 50 50">
  <!-- Generator: Adobe Illustrator 29.8.4, SVG Export Plug-In . SVG Version: 2.1.1 Build 6)  -->
  <defs>
    <style>
      .st0 {
        fill: none;
      }

      .st1 {
        fill: #b31942;
      }

      .st2 {
        fill: #0a3161;
      }

      .st3 {
        fill: #fff;
      }

      .st4 {
        clip-path: url(#clippath);
      }
    </style>
    <clipPath id="clippath">
      <rect class="st0" x="0" y="11.8" width="50" height="26.3" rx="1.6" ry="1.6"/>
    </clipPath>
  </defs>
  <g class="st4">
    <g>
      <path class="st1" d="M0,11.8h50v26.3H0"/>
      <g>
        <path d="M0,14.9h50M50,18.9H0M0,23h50M50,27H0M0,31.1h50M50,35.1H0"/>
        <path class="st3" d="M50,36.1H0v-2h50v2ZM50,32.1H0v-2h50v2ZM50,28H0v-2h50v2ZM50,24H0v-2h50v2ZM50,19.9H0v-2h50v2ZM50,15.9H0v-2h50v2Z"/>
      </g>
      <path class="st2" d="M0,11.8h20v14.2H0"/>
      <g>
        <g id="s18">
          <g id="s9">
            <g id="s5">
              <g id="s4">
                <path id="s" class="st3" d="M1.7,12.4l.5,1.5-1.2-.9h1.5l-1.2.9.5-1.5Z"/>
                <path id="s1" data-name="s" class="st3" d="M1.7,15.3l.5,1.5-1.2-.9h1.5l-1.2.9.5-1.5Z"/>
                <path id="s2" data-name="s" class="st3" d="M1.7,18.1l.5,1.5-1.2-.9h1.5l-1.2.9.5-1.5Z"/>
                <path id="s3" data-name="s" class="st3" d="M1.7,21l.5,1.5-1.2-.9h1.5l-1.2.9.5-1.5Z"/>
              </g>
              <path id="s6" data-name="s" class="st3" d="M1.7,23.8l.5,1.5-1.2-.9h1.5l-1.2.9.5-1.5Z"/>
            </g>
            <g id="s41" data-name="s4">
              <path id="s7" data-name="s" class="st3" d="M3.3,13.9l.5,1.5-1.2-.9h1.5l-1.2.9.5-1.5Z"/>
              <path id="s8" data-name="s" class="st3" d="M3.3,16.7l.5,1.5-1.2-.9h1.5l-1.2.9.5-1.5Z"/>
              <path id="s10" data-name="s" class="st3" d="M3.3,19.5l.5,1.5-1.2-.9h1.5l-1.2.9.5-1.5Z"/>
              <path id="s11" data-name="s" class="st3" d="M3.3,22.4l.5,1.5-1.2-.9h1.5l-1.2.9.5-1.5Z"/>
            </g>
          </g>
          <g id="s91" data-name="s9">
            <g id="s51" data-name="s5">
              <g id="s42" data-name="s4">
                <path id="s12" data-name="s" class="st3" d="M5,12.4l.5,1.5-1.2-.9h1.5l-1.2.9.5-1.5Z"/>
                <path id="s13" data-name="s" class="st3" d="M5,15.3l.5,1.5-1.2-.9h1.5l-1.2.9.5-1.5Z"/>
                <path id="s14" data-name="s" class="st3" d="M5,18.1l.5,1.5-1.2-.9h1.5l-1.2.9.5-1.5Z"/>
                <path id="s15" data-name="s" class="st3" d="M5,21l.5,1.5-1.2-.9h1.5l-1.2.9.5-1.5Z"/>
              </g>
              <path id="s16" data-name="s" class="st3" d="M5,23.8l.5,1.5-1.2-.9h1.5l-1.2.9.5-1.5Z"/>
            </g>
            <g id="s43" data-name="s4">
              <path id="s17" data-name="s" class="st3" d="M6.7,13.9l.5,1.5-1.2-.9h1.5l-1.2.9.5-1.5Z"/>
              <path id="s19" data-name="s" class="st3" d="M6.7,16.7l.5,1.5-1.2-.9h1.5l-1.2.9.5-1.5Z"/>
              <path id="s20" data-name="s" class="st3" d="M6.7,19.5l.5,1.5-1.2-.9h1.5l-1.2.9.5-1.5Z"/>
              <path id="s21" data-name="s" class="st3" d="M6.7,22.4l.5,1.5-1.2-.9h1.5l-1.2.9.5-1.5Z"/>
            </g>
          </g>
        </g>
        <g id="s181" data-name="s18">
          <g id="s92" data-name="s9">
            <g id="s52" data-name="s5">
              <g id="s44" data-name="s4">
                <path id="s22" data-name="s" class="st3" d="M8.3,12.4l.5,1.5-1.2-.9h1.5l-1.2.9.5-1.5Z"/>
                <path id="s23" data-name="s" class="st3" d="M8.3,15.3l.5,1.5-1.2-.9h1.5l-1.2.9.5-1.5Z"/>
                <path id="s24" data-name="s" class="st3" d="M8.3,18.1l.5,1.5-1.2-.9h1.5l-1.2.9.5-1.5Z"/>
                <path id="s25" data-name="s" class="st3" d="M8.3,21l.5,1.5-1.2-.9h1.5l-1.2.9.5-1.5Z"/>
              </g>
              <path id="s26" data-name="s" class="st3" d="M8.3,23.8l.5,1.5-1.2-.9h1.5l-1.2.9.5-1.5Z"/>
            </g>
            <g id="s45" data-name="s4">
              <path id="s27" data-name="s" class="st3" d="M10,13.9l.5,1.5-1.2-.9h1.5l-1.2.9.5-1.5Z"/>
              <path id="s28" data-name="s" class="st3" d="M10,16.7l.5,1.5-1.2-.9h1.5l-1.2.9.5-1.5Z"/>
              <path id="s29" data-name="s" class="st3" d="M10,19.5l.5,1.5-1.2-.9h1.5l-1.2.9.5-1.5Z"/>
              <path id="s30" data-name="s" class="st3" d="M10,22.4l.5,1.5-1.2-.9h1.5l-1.2.9.5-1.5Z"/>
            </g>
          </g>
          <g id="s93" data-name="s9">
            <g id="s53" data-name="s5">
              <g id="s46" data-name="s4">
                <path id="s31" data-name="s" class="st3" d="M11.7,12.4l.5,1.5-1.2-.9h1.5l-1.2.9.5-1.5Z"/>
                <path id="s32" data-name="s" class="st3" d="M11.7,15.3l.5,1.5-1.2-.9h1.5l-1.2.9.5-1.5Z"/>
                <path id="s33" data-name="s" class="st3" d="M11.7,18.1l.5,1.5-1.2-.9h1.5l-1.2.9.5-1.5Z"/>
                <path id="s34" data-name="s" class="st3" d="M11.7,21l.5,1.5-1.2-.9h1.5l-1.2.9.5-1.5Z"/>
              </g>
              <path id="s35" data-name="s" class="st3" d="M11.7,23.8l.5,1.5-1.2-.9h1.5l-1.2.9.5-1.5Z"/>
            </g>
            <g id="s47" data-name="s4">
              <path id="s36" data-name="s" class="st3" d="M13.3,13.9l.5,1.5-1.2-.9h1.5l-1.2.9.5-1.5Z"/>
              <path id="s37" data-name="s" class="st3" d="M13.3,16.7l.5,1.5-1.2-.9h1.5l-1.2.9.5-1.5Z"/>
              <path id="s38" data-name="s" class="st3" d="M13.3,19.5l.5,1.5-1.2-.9h1.5l-1.2.9.5-1.5Z"/>
              <path id="s39" data-name="s" class="st3" d="M13.3,22.4l.5,1.5-1.2-.9h1.5l-1.2.9.5-1.5Z"/>
            </g>
          </g>
        </g>
        <g id="s94" data-name="s9">
          <g id="s54" data-name="s5">
            <g id="s48" data-name="s4">
              <path id="s40" data-name="s" class="st3" d="M15,12.4l.5,1.5-1.2-.9h1.5l-1.2.9.5-1.5Z"/>
              <path id="s49" data-name="s" class="st3" d="M15,15.3l.5,1.5-1.2-.9h1.5l-1.2.9.5-1.5Z"/>
              <path id="s50" data-name="s" class="st3" d="M15,18.1l.5,1.5-1.2-.9h1.5l-1.2.9.5-1.5Z"/>
              <path id="s55" data-name="s" class="st3" d="M15,21l.5,1.5-1.2-.9h1.5l-1.2.9.5-1.5Z"/>
            </g>
            <path id="s56" data-name="s" class="st3" d="M15,23.8l.5,1.5-1.2-.9h1.5l-1.2.9.5-1.5Z"/>
          </g>
          <g id="s410" data-name="s4">
            <path id="s57" data-name="s" class="st3" d="M16.7,13.9l.5,1.5-1.2-.9h1.5l-1.2.9.5-1.5Z"/>
            <path id="s58" data-name="s" class="st3" d="M16.7,16.7l.5,1.5-1.2-.9h1.5l-1.2.9.5-1.5Z"/>
            <path id="s59" data-name="s" class="st3" d="M16.7,19.5l.5,1.5-1.2-.9h1.5l-1.2.9.5-1.5Z"/>
            <path id="s60" data-name="s" class="st3" d="M16.7,22.4l.5,1.5-1.2-.9h1.5l-1.2.9.5-1.5Z"/>
          </g>
        </g>
        <g id="s510" data-name="s5">
          <g id="s411" data-name="s4">
            <path id="s61" data-name="s" class="st3" d="M18.3,12.4l.5,1.5-1.2-.9h1.5l-1.2.9.5-1.5Z"/>
            <path id="s62" data-name="s" class="st3" d="M18.3,15.3l.5,1.5-1.2-.9h1.5l-1.2.9.5-1.5Z"/>
            <path id="s63" data-name="s" class="st3" d="M18.3,18.1l.5,1.5-1.2-.9h1.5l-1.2.9.5-1.5Z"/>
            <path id="s64" data-name="s" class="st3" d="M18.3,21l.5,1.5-1.2-.9h1.5l-1.2.9.5-1.5Z"/>
          </g>
          <path id="s65" data-name="s" class="st3" d="M18.3,23.8l.5,1.5-1.2-.9h1.5l-1.2.9.5-1.5Z"/>
        </g>
      </g>
    </g>
  </g>
</svg>