<?xml version="1.0" encoding="UTF-8"?>
<svg id="Layer_1" data-name="Layer 1" xmlns="http://www.w3.org/2000/svg" version="1.1" viewBox="0 0 50 50">
  <defs>
    <style>
      .cls-1 {
        fill: #ee3d3c;
        stroke-width: 0px;
      }
    </style>
  </defs>
  <path class="cls-1" d="M23.9,27.3h2.2v-.6c0-4.8,0-9.7,0-14.5,0-.9.2-1.1,1.2-1.1,1.4,0,2.9,0,4.3,0,.9,0,1.1.2,1.1,1.2,0,4.8,0,9.6,0,14.4v.7h2.1V9.2c-.3,0-.5,0-.8,0-.5,0-.8-.2-1-.7-.2-.4-.1-.8.2-1.2,1.3-1.4,2.7-2.9,4-4.3.5-.6,1.3-.6,1.9,0,1.3,1.4,2.7,2.8,4,4.3.3.4.4.8.2,1.2-.2.4-.5.6-1,.6-.2,0-.5,0-.8,0v18.1c0,0,.2,0,.3,0,1.3,0,2.1.9,2.1,2.1,0,3.4,0,6.8,0,10.2,0,2.7,0,5.4,0,8.1,0,1.4-.8,2.2-2.2,2.2-11.1,0-22.3,0-33.4,0-1.4,0-2.2-.8-2.2-2.2,0-5.9,0-11.9,0-17.8,0-1.9.5-2.4,2.4-2.7,0-.2,0-.3,0-.5,0-1.8,0-3.6,0-5.3,0-.9.2-1.1,1.1-1.1,1.5,0,3,0,4.5,0,.7,0,1,.3,1,1,0,1.8,0,3.6,0,5.4,0,.2,0,.4,0,.6h2.2c0-.2,0-.4,0-.6,0-3.3,0-6.6,0-9.9,0-.9.2-1.2,1.1-1.2,1.4,0,2.9,0,4.3,0,.9,0,1.2.2,1.2,1.1,0,3.3,0,6.5,0,9.8,0,.2,0,.4,0,.6ZM25,28.9c-5.5,0-11.1,0-16.6,0-.7,0-.8,0-.8.8,0,6,0,11.9,0,17.9,0,.8,0,.8.8.8,11,0,22.1,0,33.1,0,.8,0,.8,0,.8-.8,0-6,0-11.9,0-17.9,0-.8,0-.8-.8-.8-5.5,0-11,0-16.5,0ZM39.9,27.3v-.7c0-5.9,0-11.8,0-17.7,0-1.1,0-1.2,1.2-1.3,0,0,0,0,0-.1-1-1-2-2.1-3-3.2-1,1.1-2,2.2-3,3.3,1.2.1,1.3.2,1.3,1.4,0,5.9,0,11.8,0,17.7v.6h3.5ZM27.7,12.7v14.6h3.4v-14.6h-3.4ZM18.9,17.3v10h3.4v-10h-3.4ZM10.1,27.3h3.4v-5.4h-3.4v5.4Z"/>
  <path class="cls-1" d="M24.5,2.6c-.2-.3-.3-.5-.4-.8-.4-.9.2-1.9,1.2-1.8,1.8.2,3.7.5,5.5.8.9.1,1.2.9.9,1.7-.6,1.4-1.2,2.9-1.8,4.3,0,.2-.2.5-.3.7-.5.9-1.6,1-2.2.1-.2-.2-.3-.5-.5-.8-.2,0-.3.2-.5.3-4.8,2.8-9.6,5.5-14.4,8.3-1,.6-1.7.4-2.2-.6-.3-.5-.5-.9-.8-1.4-.6-1.1-.4-1.7.6-2.3,3.9-2.2,7.7-4.5,11.6-6.7,1.1-.6,2.1-1.2,3.2-1.9ZM11.3,14.2c.2-.1.4-.2.6-.3,1.7-1,3.4-2,5.1-2.9,3.2-1.9,6.5-3.7,9.7-5.6.8-.4,1.1-.4,1.5.4,0,.2.2.3.3.5.6-1.4,1.1-2.7,1.7-4-1.4-.2-2.8-.4-4.3-.6,0,.2.1.3.2.4.6,1,.5,1.2-.5,1.8-3.9,2.2-7.7,4.5-11.6,6.7-1.2.7-2.4,1.4-3.6,2.1.3.5.6,1,.9,1.6Z"/>
  <path class="cls-1" d="M25,46.9c-3.5,0-7,0-10.4,0-.8,0-1-.2-1.1-1-.2-1.8-1.4-3.1-3.3-3.3-.8,0-1-.3-1-1.1,0-1.9,0-3.8,0-5.7,0-.7.2-.9.9-1,2-.2,3.2-1.4,3.4-3.4,0-.7.3-.9,1-.9,7,0,14,0,21.1,0,.7,0,.9.2,1,.9.2,2,1.4,3.2,3.4,3.4.7,0,.9.3.9,1,0,2,0,3.9,0,5.9,0,.7-.2.9-.9,1-2,.2-3.1,1.4-3.3,3.3,0,.7-.3.9-1,.9-3.5,0-7,0-10.5,0ZM10.8,41.1c.2,0,.3,0,.4.1,1.9.5,3.1,1.7,3.6,3.6.1.4.3.5.7.5,6.1,0,12.3,0,18.4,0,.2,0,.5,0,.7,0,.1,0,.3-.2.4-.3.5-2.1,1.9-3.4,4-3.9,0,0,0,0,.1,0v-4.8c-1.1-.2-2-.7-2.8-1.4-.8-.8-1.2-1.7-1.4-2.8H15c-.5,2.3-1.9,3.7-4.2,4.2v4.8Z"/>
  <path class="cls-1" d="M25.8,34.9c.5.4.9.6,1.2.9.4.4.3.8,0,1.1-.3.3-.8.3-1.1,0-.3-.4-.8-.4-1.2-.2-.2,0-.4.4-.5.6,0,.3.2.5.5.6.2,0,.4,0,.6,0,1,0,1.8.8,2,1.8.2,1-.3,1.9-1.2,2.4-.3.1-.4.2-.4.6,0,.4-.3.6-.8.6-.4,0-.7-.2-.8-.6,0-.1,0-.2,0-.2-.4-.3-.9-.6-1.2-.9-.4-.4-.3-.8,0-1.1.3-.3.8-.3,1.1,0,.3.3.7.4,1.1.3.3,0,.5-.3.5-.7,0-.3-.2-.5-.6-.6-.2,0-.4,0-.6,0-1-.1-1.7-.8-1.9-1.8-.2-1,.3-1.9,1.2-2.4.3-.1.4-.2.4-.6,0-.4.3-.6.7-.6.4,0,.7.2.8.6,0,.1,0,.2,0,.2Z"/>
  <path class="cls-1" d="M16.8,39.5c-.3,0-.7,0-1,0-.5,0-.8-.4-.8-.8,0-.4.3-.7.8-.7.7,0,1.4,0,2.1,0,.4,0,.7.4.7.8,0,.4-.3.7-.7.8-.4,0-.7,0-1.1,0,0,0,0,0,0,0Z"/>
  <path class="cls-1" d="M33.2,37.9c.3,0,.7,0,1,0,.4,0,.7.3.7.7,0,.4-.3.8-.7.8-.7,0-1.4,0-2.2,0-.4,0-.7-.3-.7-.8,0-.4.3-.7.7-.8,0,0,0,0,0,0,.3,0,.7,0,1,0,0,0,0,0,0,0Z"/>
</svg>