<?xml version="1.0" encoding="utf-8"?>
<!-- Generator: Adobe Illustrator 28.2.0, SVG Export Plug-In . SVG Version: 6.00 Build 0)  -->
<svg version="1.1" id="Layer_1" xmlns="http://www.w3.org/2000/svg" xmlns:xlink="http://www.w3.org/1999/xlink" x="0px" y="0px"
	 viewBox="0 0 50 41.8" style="enable-background:new 0 0 50 41.8;" xml:space="preserve">
<style type="text/css">
	.st0{opacity:0.35;fill:#EE3D3C;}
</style>
<path class="st0" d="M48.4,13.8c-1-0.9-1.8-1.6-3.5-2.1c-0.2-0.1-0.2-0.3,0-0.4c1.4-0.5,2.5-1.2,3.3-2c0.9-0.9,1.3-2.1,1.3-3.4
	c0-1.6-0.6-3-1.9-4c-1.2-1.1-3-1.6-5.3-1.6h-11c-0.1,0-0.2,0.1-0.2,0.2v2.7c0,0.1,0.1,0.2,0.2,0.2h1.1c0.5,0,0.9,0.1,1.1,0.3
	c0.3,0.2,0.4,0.6,0.4,1v12.1l-0.1,2c-1.4-3.1-2.3-4.6-3-6.2L25.4,0H12.4v6.8h4.6L4.1,35.7H0v5.8h16.6v-5.7h-3.4v-2.2l2.3-4.5h14.6
	l2.4,6.7h-4.3v6h17.4v-6h-4.9l-1.4-3.3c-1.2-2.8-2.2-5.7-2.9-8.6l0-0.1l0.9,0.2c1.3,0.1,6.6,0.4,8.9-0.8c1.4-0.7,2.3-1.5,3-2.5
	c0.6-0.9,0.9-2,0.9-3.1C50,16,49.5,14.8,48.4,13.8z M16.6,23.7l6.2-12.4l5.5,12.4H16.6z M43.6,18.9c-0.5,0.5-1.2,0.7-2.1,0.7h-2.9
	v-4.7c0-0.3,0.1-0.4,0.3-0.5c0.2-0.1,0.7-0.2,1.5-0.2c1.2,0,2,0.1,2.5,0.2c0.5,0.2,0.8,0.4,1.1,0.8c0.2,0.4,0.4,0.9,0.4,1.5
	C44.3,17.7,44.1,18.5,43.6,18.9z M43.6,8.8c-0.5,0.5-1.2,0.7-2.1,0.7h-2.9V4.8c0-0.3,0.1-0.4,0.3-0.5c0.2-0.1,0.7-0.2,1.5-0.2
	c1.2,0,2,0.1,2.5,0.2c0.5,0.2,0.8,0.4,1.1,0.8c0.2,0.4,0.4,0.9,0.4,1.5C44.3,7.6,44.1,8.4,43.6,8.8z"/>
</svg>
