<?xml version="1.0" encoding="UTF-8"?>
<svg id="Layer_1" data-name="Layer 1" xmlns="http://www.w3.org/2000/svg" version="1.1" viewBox="0 0 50 50">
  <defs>
    <style>
      .cls-1 {
        fill: #ee3d3c;
        stroke: #ee3d3c;
        stroke-miterlimit: 10;
        stroke-width: .2px;
      }
    </style>
  </defs>
  <path class="cls-1" d="M50,27.9c-1.4.8-2.8,1.7-4.3,2.5-5.3,3.1-10.6,6.1-15.9,9.2-.7.4-1.6.7-2.4,1,0,0-.2,0-.2,0-.2-1.1-.5-2.2-.6-3.2-.1-1.1-1-1.3-1.9-1-.3.1-.7.2-1,.2-4.8-.2-9.4-1.2-13.8-3.1-2.8-1.2-5.4-2.6-8.1-3.9-.6-.3-.9-.7-1-1.4-.2-1.1-.4-2.2-.6-3.3-.1-.5,0-.8.5-1,5-2.9,10.1-5.8,15.1-8.7,3.3-1.9,6.5-3.8,9.8-5.6.3-.2.5-.3.8.1-.6.3-1.2.7-1.8,1-7.8,4.5-15.7,9.1-23.5,13.6-.4.2-.6.5-.5.9.2.9.4,1.8.6,2.9,9.5-5.5,18.8-10.8,28.2-16.2,0,0,0,.1.1.2C20,17.5,10.6,22.8,1.3,28.2c0,0,.1.2.2.3,9.4-5.4,18.8-10.8,28.2-16.2,0,0,0,.1.1.2-9.2,5.3-18.4,10.6-27.7,16,.6.3.5.2,1-.1.3-.2.6-.4,1-.5,0,.1-.2.2-.4.4.3,0,.4.1.6.1,4.4.2,8.6,1.2,12.6,2.8,3,1.1,5.9,2.5,8.7,4.1.5.3,1,.4,1.1,1,0,.4,0,.8.2,1.1.1.8.3,1.5.5,2.4,7.3-4.2,14.5-8.4,21.8-12.5,0,0,0,.1.1.2-7.1,4.1-14.1,8.2-21.2,12.2,0,0,0,.2,0,.2.3,0,.6-.1.9-.3,2-1.1,3.9-2.2,5.9-3.3,4.5-2.6,9-5.2,13.5-7.8.4-.2.7-.5,1.1-.6.2,0,.4,0,.5-.1,0,0,0,.1,0,.2ZM8.6,32c.9-.6,1.8-1.1,2.7-1.7.2-.1.3-.2.5-.4,0,0,0,0,0-.1l-1,.5c.2-.2.4-.4.8-.7-1.5-.3-2.8-.5-4.1-.7,0,0-.3.2-.3.3.1.9.3,1.7.5,2.7.4-.1.6-.2.8-.3-.2.2-.4.3-.6.5,0,0,0,0,0,.1,0,0,.2,0,.3,0,0,.7.6.5,1,.6-.3-.2.2-1-.6-.8ZM10.7,32.6c-.2.2-.4.3-.6.5,0,0,0,.1.1.2.2-.1.5-.2.7-.3-.1.1-.2.3-.4.5,1.2.4,2.2.8,3.3,1.1,0,0,.1-.1.2-.2-.2-.8-.3-1.6-.5-2.4,0,0-.4,0-.6-.1.1-.2.3-.3.4-.5,0,0,0,0,0-.1-.2,0-.3,0-.5,0,.5-.2.6-.6.3-1.1-.9.5-1.8,1.1-2.7,1.6-.1,0-.2.4-.1.5.1.1.3.2.5.2ZM21,35.6c0,0-.1.2-.2.3h0c.3,0,.6-.2.9-.4-.1.2-.3.3-.4.5,1.4.6,2.9.3,3.8-.7-.7-.3-1.1-1-2-.5,0,0,0-.2.1-.3-.1,0-.3,0-.4,0,0-.2,0-.4-.1-.5-.6-.5-1.8-.3-2.3.3-.2.3,0,1.1.4,1.2ZM16.1,33.5c-.6.3-1.1.7-1.7,1,0,0,0,.1,0,.2.2,0,.4-.1.6-.2-.5.5,0,.5.3.5,1.3.3,2.5.5,3.8.8.3,0,.7,0,1.2.2-.2-1-.3-1.9-.5-2.8-.1-.7-.5-.9-1.2-.4-.2.1-.3.2-.5.3-.4.1-.8.2-1.1.3.1,0,.2-.2.3-.3,0,0,0,0,0-.1-.1,0-.2,0-.3,0,.5-.5.6-1.4,0-1.6-1-.4-2-.7-3-1,0,0-.4.2-.4.3.2,1.2.4,2.4.7,3.7.7-.3,1.3-.6,1.9-.9ZM7.2,32.1c0,0,.1,0,.2-.1-.2-1-.4-1.9-.6-2.9,0-.1-.2-.3-.4-.3-1.4-.3-2.8-.2-4.2.2-.1,0-.2.2-.4.4,1.9.9,3.6,1.8,5.4,2.7ZM20.3,34.2c.5-.3.8-.5,1.3-.8-.6-.3-1-.4-1.6-.7.1.6.2,1,.3,1.5Z"/>
</svg>