<?xml version="1.0" encoding="UTF-8"?>
<svg id="Layer_1" data-name="Layer 1" xmlns="http://www.w3.org/2000/svg" version="1.1" viewBox="0 0 50 50">
  <defs>
    <style>
      .cls-1 {
        fill: #ee3d3c;
        stroke-width: 0px;
      }
    </style>
  </defs>
  <path class="cls-1" d="M49.2,50H.7c-.4-.2-.7-.5-.7-1,0-1.3,0-2.6,0-3.9,0-.6.4-.9,1-1,.1,0,.3,0,.5,0V14.7c-1.3,0-1.5-.9-1-1.9C2.3,8.8,4.1,4.8,6,.8,6.2.3,6.6,0,7.2,0c11.9,0,23.9,0,35.8,0,.6,0,.9.2,1.2.7,1.9,4.1,3.8,8.1,5.6,12.2.4.9.2,1.7-1,1.7,0,0,0,0,0,0,0,9.8,0,19.6,0,29.4,1,.2,1.2.4,1.2,1.4,0,1.1,0,2.2,0,3.3,0,.6-.2,1-.7,1.2ZM42.9,30.5c0-1.1,0-2.1,0-3.1,0-.2-.1-.3-.2-.4-3.8-4-7.6-8-11.3-12-.1-.1-.4-.2-.5-.2-3.7,0-7.5,0-11.2,0-.2,0-.4.1-.5.2-3.8,4-7.6,8-11.4,12,0,.1-.2.2-.2.4,0,1.1,0,2.1,0,3.2.2,0,.4,0,.6,0,4.7,0,9.3,0,14,0,.9,0,1.2.4,1.2,1.2,0,2.4,0,4.9,0,7.3,0,.9-.4,1.2-1.3,1.2-.6,0-1.2,0-1.8,0v3.9h10.1v-3.8c0,0,0,0-.1,0-.6,0-1.1,0-1.7,0-.9,0-1.3-.3-1.3-1.3,0-2.4,0-4.8,0-7.2,0-1,.3-1.3,1.3-1.3,4.6,0,9.2,0,13.9,0h.6ZM48,46.1H2v1.9h46v-1.9ZM21.2,38.3v-5.8H7.4v1.9c.2,0,.4,0,.6,0,2,0,4.1,0,6.1,0,.8,0,1.3.6,1,1.3-.2.5-.6.7-1.1.7-2,0-4.1,0-6.1,0-.2,0-.3,0-.5,0v1.9h13.8ZM42.8,32.5h-13.8v5.8h13.8v-1.9c-2.2,0-4.4,0-6.5,0-.8,0-1.2-.4-1.2-1,0-.6.4-1,1.2-1,1.4,0,2.7,0,4.1,0,.8,0,1.7,0,2.5,0v-1.9ZM2.7,12.7c2,0,4,0,5.9,0,.2,0,.4-.2.5-.3,1-1.7,1.9-3.5,2.8-5.2.1-.3.1-.5,0-.7-.5-1-.9-1.9-1.3-2.9-.2-.5-.4-1.2-.8-1.5-.4-.3-1.1,0-1.7,0-.4,0-.5.1-.6.4-1,2.3-2.1,4.5-3.1,6.8-.5,1.2-1.1,2.3-1.6,3.6ZM47.5,12.7c-.1-.2-.2-.4-.3-.6-1.3-2.8-2.6-5.7-3.9-8.5-.3-.5-.4-1.3-.8-1.5-.5-.3-1.2,0-1.8,0-.2,0-.4.2-.5.3-.7,1.4-1.3,2.8-2,4.2,0,.2,0,.4,0,.6.9,1.8,1.9,3.6,2.9,5.3,0,.1.3.3.4.3,2,0,3.9,0,5.9,0ZM3.5,14.7v29.4h1.9V14.7h-1.9ZM46.7,44.1V14.7h-1.9v29.4h1.9ZM32.9,12.9c.2-.2.4-.3.5-.5.8-1.7,1.6-3.5,2.4-5.2,0-.2,0-.4,0-.6-.8-1.4-1.5-2.9-2.3-4.3-.2-.3-.4-.4-.6-.3-.2,0-.4.2-.4.3-.7,1.6-1.5,3.1-2.2,4.7,0,.2,0,.4,0,.6.7,1.6,1.5,3.2,2.2,4.8,0,.2.3.3.5.5ZM17.3,12.9c.2-.2.4-.3.5-.5.7-1.6,1.5-3.2,2.2-4.8,0-.2,0-.4,0-.6-.7-1.6-1.4-3.2-2.2-4.8,0-.1-.3-.3-.5-.3-.2,0-.4,0-.6.3-.8,1.5-1.6,2.9-2.3,4.3,0,.2,0,.4,0,.6.8,1.7,1.6,3.5,2.4,5.2,0,.2.3.3.5.5ZM25.1,1.8c-.2.2-.4.4-.5.5-.7,1.6-1.5,3.1-2.2,4.7,0,.2,0,.5,0,.6.7,1.6,1.5,3.2,2.2,4.7.1.2.2.3.5.3.3,0,.4,0,.5-.3.7-1.6,1.4-3.1,2.1-4.7,0-.2,0-.5,0-.7-.7-1.6-1.4-3.1-2.1-4.6,0-.2-.3-.3-.5-.5ZM14.1,44.1v-3.9h-6.8v3.9h6.8ZM42.8,44.1v-3.9h-6.8v3.9h6.8ZM33.8,14.8c3,3.2,6,6.3,9.1,9.6,0-1.1,0-2,0-2.9,0-.2-.1-.5-.3-.7-1.8-1.9-3.6-3.8-5.4-5.7-.1-.1-.3-.2-.4-.2-1,0-1.9,0-3,0ZM16.4,14.8c-1,0-1.9,0-2.7,0-.2,0-.5.1-.7.3-1.5,1.5-2.8,3.1-4.3,4.5-1,.9-1.5,1.9-1.3,3.2,0,.4,0,.9,0,1.4,3.1-3.2,6-6.3,9-9.6ZM18,44.1v-3.8h-1.9v3.8h1.9ZM34,44.1v-3.8h-1.9v3.8h1.9ZM13.1,9c-.7,1.3-1.3,2.4-2,3.6h3.6c-.6-1.2-1.1-2.4-1.7-3.6ZM35.4,12.7h3.6c-.7-1.2-1.3-2.4-2-3.6-.6,1.2-1.1,2.4-1.7,3.6ZM42.8,14.7h-3.2c1.1,1.2,2.1,2.2,3.2,3.4v-3.4ZM10.6,14.7h-3.2v3.4c1.1-1.2,2.1-2.3,3.2-3.4ZM29,9.7c-.5,1-.9,2-1.4,3h2.8c-.5-1-.9-2-1.4-3ZM27.6,2c.5,1,.9,2,1.4,3,.5-1,.9-2,1.4-3h-2.8ZM21.2,5c.5-1.1.9-2,1.4-3h-2.8c.5,1,.9,2,1.4,3ZM22.6,12.7c-.5-1-.9-2-1.4-3-.5,1-.9,2-1.4,3h2.8ZM14.6,2h-2.7c.4.9.8,1.7,1.2,2.7.5-.9,1-1.8,1.4-2.7ZM37,4.7c.4-.9.8-1.8,1.2-2.7h-2.7c.5.9.9,1.7,1.4,2.7Z"/>
  <path class="cls-1" d="M17.1,35.4c0-.5.4-1,.9-1,.5,0,1,.4,1,1,0,.5-.5,1-1,1-.5,0-1-.4-1-1Z"/>
  <path class="cls-1" d="M31.2,35.4c0-.5.4-1,.9-1,.5,0,1,.4,1,1,0,.5-.4,1-1,1-.5,0-1-.4-1-1Z"/>
</svg>