<?xml version="1.0" encoding="UTF-8"?>
<svg id="Layer_1" data-name="Layer 1" xmlns="http://www.w3.org/2000/svg" version="1.1" viewBox="0 0 50 50">
  <defs>
    <style>
      .cls-1 {
        fill: #ee3d3c;
        stroke-width: 0px;
      }
    </style>
  </defs>
  <path class="cls-1" d="M8.8,50c-.6-.1-1.1-.2-1.7-.4-1.2-.3-1.4-1.1-.5-2,1.2-1.2,2.4-2.3,3.5-3.5.2-.2.3-.5.3-.8.2-1-.1-1.9-1-2.5,0,0-.1-.1-.2-.2-.5-.4-.7-1-1.6-1-1,0-1.7.3-2.4,1-.9,1-1.9,1.9-2.8,2.9-.9.9-1.6.7-2-.5-1.9-6.3,3-12.8,9.6-12.6.7,0,1.3.2,2,.3.1,0,.3,0,.4,0,2.3-2.3,4.7-4.7,7.1-7.1-.2-.1-.3-.2-.4-.3-3.8-3.8-7.5-7.5-11.3-11.3-.3-.3-.5-.4-.9-.4-.6,0-1.1,0-1.7,0-.5,0-.8-.2-1-.6C3,8.8,1.6,6.6.3,4.4,0,3.8,0,3.4.5,2.9c.8-.8,1.7-1.7,2.5-2.5.5-.5.9-.5,1.4-.2,2.2,1.3,4.5,2.7,6.7,4,.4.2.6.6.6,1,0,0,0,0,0,0,0,.7-.2,1.5,0,2.1.3.6,1,1.1,1.5,1.6,3.3,3.3,6.7,6.7,10,10,.1.1.2.3.4.4.2-.1.3-.2.4-.3,2.2-2.2,4.4-4.4,6.5-6.5.2-.2.3-.4.2-.8-1.2-5.2,2.1-10.4,7.3-11.6,1.7-.4,3.5-.4,5.2.2.9.3,1.1,1.1.5,1.8-1.2,1.2-2.3,2.4-3.5,3.6-.2.2-.3.5-.4.8-.1,1.1.2,1.9,1,2.5,0,0,.1.1.2.2.6.8,1.3,1.1,2.3,1,.4,0,.7-.1,1-.4,1.1-1.2,2.3-2.3,3.4-3.5.8-.8,1.6-.6,1.9.5,0,.3.2.5.3.8v4c0,.2-.1.3-.2.5-.6,2.1-1.7,3.8-3.5,5.2-2.4,1.8-5,2.4-8,1.8-.4,0-.6,0-.9.3-1.7,1.7-3.3,3.4-5,5-.1.1-.2.2-.4.4.5.4.9.9,1.4,1.3,1.1-.9,1.6-1,2-.5.4.5.4.8-.5,1.9.1.1.2.2.4.3,4.1,3.8,8.3,7.6,12.4,11.4.6.6,1.2,1.2,1.6,1.9.3.4.4.9.6,1.3v3c0,.1-.1.3-.2.4-.6,1.6-1.7,2.8-3.3,3.5-.5.2-.9.3-1.4.5h-1.7c-1.5-.3-2.8-1.1-3.8-2.2-3.8-4.2-7.7-8.4-11.6-12.6-.1-.1-.2-.3-.2-.4-1.1,1-1.5,1.1-2,.6-.5-.5-.4-.9.5-2-.4-.5-.8-.9-1.3-1.4-1.9,1.9-3.7,3.7-5.5,5.6-.1.1-.2.4-.1.6.2,1.1.3,2.3.2,3.4-.5,3.5-2.3,6-5.5,7.5-1,.5-2.1.7-3.2,1h-2ZM41.1,2.2v-.2c-.3,0-.5,0-.7,0-2.7,0-5,1.1-6.5,3.4-1.4,2-1.7,4.2-1,6.6.2.6.1,1-.3,1.5-6.3,6.3-12.7,12.7-19,19-.4.4-.8.5-1.3.4-.5-.1-1.1-.3-1.7-.3-2.9-.2-5.3.9-7,3.3-1.1,1.5-1.6,3.3-1.4,5.3.2-.2.3-.3.4-.4.8-.8,1.7-1.7,2.5-2.5.3-.3.7-.5,1.1-.5.8,0,1.6,0,2.3,0,.4,0,.7.1,1,.4.8.8,1.7,1.7,2.5,2.5.2.3.3.7.4,1,0,.2,0,.5,0,.8,0,2.6.3,1.8-1.5,3.7-.6.6-1.2,1.2-1.8,1.8.2,0,.4,0,.6,0,2,0,3.9-.6,5.4-2,2.3-2.2,3.1-4.9,2.3-8-.2-.6,0-1,.4-1.5,6.3-6.3,12.6-12.6,18.9-18.9.4-.4.9-.5,1.5-.4,4.1,1.2,8.3-1,9.6-5.1.3-1,.4-2.1.3-3.1-1,1-1.9,1.9-2.9,2.8-.3.3-.6.5-1.1.5-.8,0-1.6,0-2.3,0-.5,0-.8-.2-1.1-.5-.8-.8-1.6-1.6-2.3-2.5-.2-.3-.4-.7-.4-1.1,0-.7,0-1.4,0-2.1,0-.5.2-.9.5-1.3.9-.9,1.8-1.7,2.8-2.6ZM33.6,29.1c-1.5,1.5-3,2.9-4.4,4.4,0,0,0,0,0,.1,4,4.4,8.1,8.8,12.2,13.2,1,1.1,2.3,1.5,3.8,1.1,1.5-.4,2.5-1.4,2.8-2.9.3-1.5-.1-2.7-1.2-3.7-1.7-1.6-3.5-3.2-5.2-4.8-2.7-2.5-5.4-4.9-8-7.3ZM22.3,20.9c-.1-.1-.2-.3-.4-.4-3.9-3.9-7.7-7.8-11.6-11.6-.4-.4-.5-.7-.5-1.2,0-.5,0-1,0-1.6,0-.2-.1-.4-.2-.5-1.8-1.1-3.7-2.2-5.5-3.3-.5.5-.9.9-1.4,1.4-.2.2-.2.4,0,.7.8,1.3,1.6,2.6,2.3,3.9.3.5.5,1.2.9,1.4.5.3,1.2.1,1.8,0,.6,0,1,.2,1.4.6,3.8,3.9,7.7,7.7,11.5,11.6.1.1.2.3.3.4.6-.6,1-1,1.5-1.4ZM30.7,26.5c-1.4,1.4-2.8,2.8-4.2,4.2.4.4.8.9,1.1,1.2,1.5-1.5,2.9-2.9,4.3-4.3-.4-.4-.8-.8-1.2-1.1Z"/>
  <path class="cls-1" d="M19.2,32.1c-.9,0-1.4-.8-1-1.4.1-.2.3-.3.4-.5,3.9-3.9,7.8-7.8,11.7-11.7.2-.2.6-.5.9-.5.3,0,.6.2.8.4.3.3.2.7,0,1-.1.2-.2.3-.4.4-3.9,3.9-7.8,7.8-11.7,11.7-.2.2-.6.4-.7.5Z"/>
  <path class="cls-1" d="M34,17.1c-.5,0-1-.4-1-.9,0-.5.4-1,1-1,.5,0,1,.4,1,.9,0,.5-.4,1-1,1Z"/>
  <path class="cls-1" d="M16.2,32.9c.5,0,1,.4,1,.9,0,.5-.4,1-1,1-.5,0-1-.4-1-.9,0-.5.4-1,1-1Z"/>
  <path class="cls-1" d="M34.9,33.7c.1,0,.4.2.6.4,2.9,2.8,5.7,5.7,8.6,8.6.5.5.5,1.1.1,1.5-.4.4-1,.4-1.5,0-2.9-2.9-5.8-5.7-8.6-8.6-.3-.3-.5-.7-.3-1.2.2-.4.5-.6,1.1-.6Z"/>
</svg>