<?xml version="1.0" encoding="UTF-8"?>
<svg id="Layer_1" data-name="Layer 1" xmlns="http://www.w3.org/2000/svg" version="1.1" viewBox="0 0 50 41.8">
  <defs>
    <style>
      .cls-1 {
        fill: #ee3d3c;
        isolation: isolate;
        stroke-width: 0px;
      }
    </style>
  </defs>
  <path class="cls-1" d="M48.4,13.8c-1-.9-1.8-1.6-3.5-2.1-.2-.1-.2-.3,0-.4,1.4-.5,2.5-1.2,3.3-2,.9-.9,1.3-2.1,1.3-3.4s-.6-3-1.9-4c-1.2-1.1-3-1.6-5.3-1.6h-11c-.1,0-.2,0-.2.2v2.7c0,0,.1.2.2.2h1.1c.5,0,.9,0,1.1.3.3.2.4.6.4,1v14.1c-1.5-3.1-2.4-4.6-3.1-6.2L25.4,0h-13v6.8h4.6l-12.9,28.9H0v5.8h16.6v-5.7h-3.4v-2.2l2.3-4.5h14.6l2.4,6.7h-4.3v6h17.4v-6h-4.9l-1.4-3.3c-1.2-2.8-2.2-5.7-2.9-8.6h0c0-.1.9.1.9.1,1.3.1,6.6.4,8.9-.8,1.4-.7,2.3-1.5,3-2.5.6-.9.9-2,.9-3.1-.1-1.6-.6-2.8-1.7-3.8ZM16.6,23.7l6.2-12.4,5.5,12.4h-11.7ZM43.6,18.9c-.5.5-1.2.7-2.1.7h-2.9v-4.7c0-.3,0-.4.3-.5s.7-.2,1.5-.2c1.2,0,2,.1,2.5.2.5.2.8.4,1.1.8.2.4.4.9.4,1.5,0,1-.3,1.8-.8,2.2ZM43.6,8.8c-.5.5-1.2.7-2.1.7h-2.9v-4.7c0-.3,0-.4.3-.5s.7-.2,1.5-.2c1.2,0,2,0,2.5.2.5.2.8.4,1.1.8.2.4.4.9.4,1.5,0,1-.3,1.8-.8,2.2Z"/>
</svg>