<?xml version="1.0" encoding="UTF-8"?>
<svg id="Layer_1" data-name="Layer 1" xmlns="http://www.w3.org/2000/svg" version="1.1" viewBox="0 0 50 50">
  <defs>
    <style>
      .cls-1 {
        fill: #ee3d3c;
        stroke-width: 0px;
      }
    </style>
  </defs>
  <path class="cls-1" d="M41.8,24.2v20.4c-.3,0-.6,0-.9,0-10.2,0-20.5,0-30.7,0-5.1,0-8.1-4.9-5.9-9.4,2.5-5,5-10,7.5-14.9.8-1.5,1.5-3,2.3-4.5,1.3-2.4,3.9-3.6,6.6-3.2,2.5.3,4.7,2.3,5.3,4.9.3,1.5.2,2.9-.5,4.3-.4.8-.8,1.5-1.3,2.5h17.6ZM8.7,33.2h-.1c-.3,0-.5,0-.8,0-2.8,1.1-4.1,4.7-2.7,7.3,1.1,2.2,3,3.1,5.4,3,9.8,0,19.5,0,29.3,0,.3,0,.6,0,1,0,0-.2,0-.4,0-.6,0-5.7,0-11.3,0-17,0-.7-.3-.8-.8-.8-5.2,0-10.4,0-15.5,0-.6,0-.8.2-1.1.7-2.5,5-5.1,10-7.6,15-.5,1.1-1.4,1.8-2.5,2-2.4.5-5.1-.7-6.2-3-.7-1.5-1-2.9.2-4.4.6-.7,1-1.6,1.6-2.4ZM6.9,32.5c2-.8,4-1,5.9,0,1.9,1,3.1,2.6,3.5,4.8.2-.2.3-.4.4-.5,2.6-5.1,5.2-10.3,7.8-15.4,1-1.9.9-3.9-.4-5.6-2.5-3.3-7.2-2.9-9.2.8-2.7,5.1-5.2,10.3-7.8,15.4,0,.1,0,.3-.2.6ZM15.4,38.2c0-2.6-2.1-5-4.6-5.3-.5,0-.7,0-.9.4-.7,1.1-1.5,2.3-2.1,3.4-.2.3-.3.7-.3,1.1.1,2.6,2.5,4.4,5.2,4.1,1.1-.1,1.8-.7,2.2-1.6.3-.7.3-1.4.5-2.1Z"/>
  <path class="cls-1" d="M26.5,5.4c6.4,5.8,12.6,11.4,18.9,17.2h-18.9V5.4ZM27.7,7.9c0,.5,0,.9,0,1.2,0,3.7,0,7.5,0,11.2,0,.2,0,.5,0,.7,0,.2.2.5.4.5.2,0,.4-.1.6-.3.4-.5.8-.5,1.2,0,.4.5,1.9.5,2.3,0,.2-.4.8-.4,1.1,0,.4.6,1.9.5,2.4,0,.2-.2.9-.2.9-.2.4,1.1,1.6.7,2,.5.8-.5,1.1-.9,1.9,0,.3.3,1.3,0,1.9,0,0,0,0-.2,0-.2-4.8-4.4-9.7-8.8-14.7-13.3Z"/>
  <path class="cls-1" d="M46.5,35.8c0,2.2,0,4.3,0,6.5,0,.6-.2.9-.8.9-2.3,0-1.9.3-1.9-1.9,0-4,0-7.9,0-11.9,0-1.1.6-2.2,1-3.3.2-.4.6-.4.7,0,.4,1.1.9,2.2.9,3.4.1,2.1,0,4.2,0,6.3,0,0,0,0,0,0ZM45.8,34.9c0-1.4,0-2.7,0-4.1,0-.2-.2-.4-.3-.6,0,.2-.3.4-.3.6,0,2.7,0,5.3,0,8,0,.2.2.4.3.6,0-.2.2-.4.3-.6,0-1.3,0-2.6,0-3.9ZM45.9,42.6c-.1-.6,0-1-.3-1.2-.2-.2-.7-.1-1,0-.1,0-.2.7,0,.8.3.2.7.2,1.3.4ZM45.1,27.4c-.2.5-.3.8-.5,1.3.4,0,.6,0,1,0-.2-.4-.3-.7-.5-1.2Z"/>
  <path class="cls-1" d="M38.2,34.5h-5.1c0-.4,0-.6,0-1,1.1.1,1-.7,1-1.3,0-1.3,0-2.6,0-3.9,0-.5-.2-.7-.7-.7-1,0-2,0-3,0v-1h8.9v2.4h-1c0-.5,0-.9,0-1.4h-3.1c0,1.8,0,3.6,0,5.3,0,.1.3.4.5.4.7,0,1.3,0,2,0,.4,0,.6-.2.6-.6,0-.6,0-1.1,0-1.7,1-.3,1.1-.2,1.1.7,0,1.5,0,3,0,4.6h-1.1v-1.9Z"/>
  <path class="cls-1" d="M24.6,36.4h-1.1v-9.8h4.8c0,.3,0,.6,0,1-1,0-2,0-3,0-.6,0-.8.2-.8.8,0,1.4,0,2.7,0,4.1,0,.7.2,1,.9,1,1.6,0,3.1,0,4.7,0,.3,0,.6,0,.9,0v1.1c-1.7,0-3.3,0-4.9,0-.2,0-.4,0-.7,0-.7-.1-1,.2-.9.9,0,.3,0,.6,0,1Z"/>
  <path class="cls-1" d="M31.1,42.1v-1h7v-2.6c1-.3,1.1-.3,1.1.7,0,1,0,1.9,0,3h-8.1Z"/>
  <path class="cls-1" d="M29.2,41.1v1h-5.6v-3.7c1-.2,1-.2,1,.8q0,1.9,2,1.9c.8,0,1.7,0,2.6,0Z"/>
  <path class="cls-1" d="M38.4,20c-2.9,0-5.9,0-8.8,0-.2,0-.5-.3-.5-.5,0-2.6,0-5.3,0-8.2,3.2,2.9,6.3,5.7,9.4,8.6,0,0,0,.1,0,.2ZM35.6,18.9c0,0,0-.1,0-.2-1.8-1.6-3.5-3.2-5.4-4.9v5.1h5.3Z"/>
</svg>