<?xml version="1.0" encoding="UTF-8"?>
<svg id="Layer_1" data-name="Layer 1" xmlns="http://www.w3.org/2000/svg" version="1.1" viewBox="0 0 50 50">
  <defs>
    <style>
      .cls-1 {
        fill: #ee3d3c;
        stroke-width: 0px;
      }
    </style>
  </defs>
  <g>
    <path class="cls-1" d="M7.2,12.9c.2-.3.4-.4.8-.4.6,0,1.2,0,1.7,0,.5,0,.7.2.7.6,0,.4-.3.6-.7.6-.5,0-1.1,0-1.6,0-.4,0-.6,0-.9-.3v-.4Z"/>
    <path class="cls-1" d="M29.5,11.1c0-.3,0-.6,0-.8,0-1,.9-1.9,1.9-1.9,1.1,0,1.9.8,2,1.9,0,.3,0,.5,0,.8.1,0,.3,0,.4,0,1.2,0,2.5,0,3.7,0,1,0,1.8.7,1.9,1.7.1,1-.5,1.9-1.5,2.1-.2,0-.4,0-.7,0-1.2,0-2.3,0-3.5,0-.1,0-.3,0-.4,0,0,.3,0,.5,0,.8,0,1.1-.9,2-2,2-1.1,0-1.9-.9-1.9-2,0-.2,0-.5,0-.8h-.5c-5.1,0-10.3,0-15.4,0-.9,0-1.6-.4-2-1.2-.6-1.3.4-2.7,1.7-2.7.4,0,.8,0,1.2,0,4.8,0,9.6,0,14.4,0h.5ZM29.4,12.3h-.4c-5.1,0-10.3,0-15.4,0-.1,0-.3,0-.4,0-.4,0-.7.4-.7.8,0,.5.4.8.9.8,5.2,0,10.4,0,15.6,0,0,0,.2,0,.3,0v-1.6ZM32.2,13.1c0-.9,0-1.8,0-2.7,0-.5-.3-.9-.8-.9-.5,0-.8.4-.8.9,0,1.8,0,3.5,0,5.3,0,.3,0,.6.4.8.3.2.5.2.8,0,.3-.2.4-.5.4-.8,0-.9,0-1.7,0-2.6ZM33.4,13.9c1.4,0,2.8,0,4.2,0,.5,0,.8-.5.7-.9,0-.4-.4-.7-.9-.7-1.2,0-2.5,0-3.7,0,0,0-.2,0-.2,0v1.6Z"/>
    <path class="cls-1" d="M21,9.8c-1.2,0-2.5,0-3.7,0-.6,0-.9-.3-.8-.9.2-2.2,1.7-3.8,3.9-4.2,2.3-.4,4.7,1.3,5.1,3.6,0,.2,0,.5,0,.7,0,.5-.2.7-.7.7-1.1,0-2.2,0-3.3,0-.2,0-.4,0-.5,0ZM24.3,8.6c0-1.4-1.7-2.8-3.3-2.8-1.6,0-3.2,1.4-3.2,2.8h6.5Z"/>
    <path class="cls-1" d="M41.5,13.7c-.8-.1-1-.3-1-.7,0-.4.2-.5,1-.6,0-.4,0-1,.6-1,.6,0,.6.5.6,1,.9.2,1,.3,1,.7,0,.4-.2.5-1,.6,0,.4,0,1-.7,1-.6,0-.5-.6-.6-1Z"/>
    <path class="cls-1" d="M14.8,9.8c-.2,0-.4,0-.6,0-.4,0-.6-.3-.6-.6,0-.3.2-.6.6-.6.4,0,.9,0,1.3,0,.4,0,.6.3.6.6,0,.3-.3.6-.6.6-.2,0-.4,0-.6,0Z"/>
    <path class="cls-1" d="M27.2,9.8c-.2,0-.4,0-.6,0-.4,0-.6-.3-.6-.6,0-.3.2-.6.6-.6.4,0,.9,0,1.3,0,.4,0,.6.3.6.6,0,.3-.2.6-.6.6-.2,0-.4,0-.7,0,0,0,0,0,0,0Z"/>
    <path class="cls-1" d="M14.9,5.1c.2,0,.3,0,.4.1.4.2.8.4,1.1.7.3.2.4.5.2.8-.2.3-.5.4-.8.2-.4-.2-.8-.5-1.2-.7-.2-.1-.3-.4-.2-.6,0-.2.3-.3.4-.5Z"/>
    <path class="cls-1" d="M23.9,5c-.5,0-.8-.4-.6-.8.2-.5.5-.9.8-1.4.2-.2.5-.3.7-.1.3.2.3.4.2.7-.2.4-.5.9-.7,1.3,0,.1-.3.2-.4.3Z"/>
    <path class="cls-1" d="M27.1,5.1c.2.1.3.3.5.4.1.2,0,.5-.2.6-.4.3-.9.6-1.4.8-.3.1-.5,0-.6-.2-.2-.2-.2-.5,0-.7.5-.3,1-.6,1.5-.9,0,0,0,0,.1,0,0,0,0,0,0,0Z"/>
    <path class="cls-1" d="M17.7,2.6c0,0,.3.2.4.3.2.4.5.8.7,1.1.2.3,0,.6-.2.8-.3.2-.6,0-.8-.2-.2-.4-.5-.8-.7-1.2-.2-.4,0-.8.6-.8Z"/>
    <path class="cls-1" d="M21.6,3c0,.2,0,.5,0,.7,0,.3-.3.6-.6.6-.3,0-.5-.2-.6-.6,0-.5,0-.9,0-1.4,0-.3.2-.6.6-.6.3,0,.6.2.6.6,0,.2,0,.5,0,.7,0,0,0,0,0,0Z"/>
  </g>
  <path class="cls-1" d="M4,23.1c.1,0,.2,0,.3,0,8.2,0,35.8,0,44,0,.2,0,.3,0,.5,0,.7-.1,1.2-.7,1.3-1.4,0-.6-.4-1.3-1.1-1.5-.3,0-.6,0-.9,0-8.1,0-35.5,0-43.5,0h-.5v3ZM0,25.1C0,25.1,0,25.2,0,25.2c0,6.8,0,13.7,0,20.5,0,.2,0,.3,0,.5,0,.8.6,1.4,1.4,1.4.9,0,1.6-.6,1.6-1.7,0-6.7,0-13.4,0-20.1,0-.2,0-.4,0-.6H0ZM10.1,43.9c-1,1.1-2,2.2-2.9,3.2,1.2.3,2.6.7,4.1,1.1,0-.2,0-.4-.1-.5-.2-.7-.2-.7.5-.9,6.4-1.9,21.8-5.7,25.6-11.2.9-1.3,1.6-2.8,2.4-4.2.2-.4.4-.5.8-.3.2.1.4.2.7.3-.2-1.5-.3-2.9-.5-4.4-1.2.9-2.4,1.8-3.6,2.7.3.1.6.2.8.4.6.2.6.3.3.9-1.1,2.3-2.5,4.5-4.2,6.4-3.5,3.9-17.9,6.7-23,8.1-.4.1-.5,0-.6-.4,0-.3-.2-.7-.3-1.2Z"/>
  <path class="cls-1" d="M4,23.1v-3h.5c8.1,0,35.5,0,43.5,0,.3,0,.6,0,.9,0,.6.2,1.1.8,1.1,1.5,0,.7-.6,1.3-1.3,1.4-.2,0-.3,0-.5,0-8.2,0-35.8,0-44,0,0,0-.2,0-.3,0Z"/>
  <path class="cls-1" d="M0,25.1h3c0,.2,0,.4,0,.6,0,6.7,0,13.4,0,20.1,0,1.1-.6,1.7-1.6,1.7-.8,0-1.4-.6-1.4-1.4,0-.2,0-.3,0-.5C0,38.8,0,32,0,25.2c0,0,0,0,0-.1Z"/>
  <g>
    <path class="cls-1" d="M10.7,46.4v-1c15.5-.9,28.3-8.9,30.4-19l1,.2c-2.2,10.7-15.1,18.8-31.3,19.8Z"/>
    <path class="cls-1" d="M41.9,23.5c-.7,1.4-1.8,3-2.9,4l2.5-.6,2.3,1.2c-.8-1.2-1.5-3.1-1.9-4.6Z"/>
    <path class="cls-1" d="M7.6,46c1.4-.6,3.2-1.6,4.3-2.6l-.8,2.4,1,2.4c-1.1-.9-3-1.8-4.4-2.3Z"/>
  </g>
</svg>