<?xml version="1.0" encoding="UTF-8"?>
<svg id="Layer_1" data-name="Layer 1" xmlns="http://www.w3.org/2000/svg" version="1.1" viewBox="0 0 50 50">
  <defs>
    <style>
      .cls-1 {
        fill: #ee3d3c;
        stroke-width: 0px;
      }
    </style>
  </defs>
  <path class="cls-1" d="M11.1,37v11.1h-1.9v-11.1h1.9ZM7.4,38.9h-1.9v7.4h1.9v-7.4h0ZM14.8,37h-1.9v11.1h1.9v-11.1h0ZM18.5,38.9h-1.9v7.4h1.9v-7.4h0ZM22.2,37h-1.9v11.1h1.9v-11.1h0ZM25.9,35.2h-1.9v14.8h1.9v-14.8h0ZM29.6,37h-1.9v11.1h1.9v-11.1h0ZM33.3,38.9h-1.9v7.4h1.9v-7.4h0ZM37,37h-1.9v11.1h1.9v-11.1h0ZM40.7,37h-1.9v11.1h1.9v-11.1h0ZM44.4,38.9h-1.9v7.4h1.9v-7.4h0Z"/>
  <path class="cls-1" d="M35.6,3.7c-.6,0-1.2,0-1.8.2-2.2-2.4-5.4-3.9-8.8-3.9s-6.6,1.5-8.8,3.9c-.6-.1-1.2-.2-1.8-.2-4.9,0-8.8,4.1-8.8,9.3s4,9.3,8.8,9.3,1.2,0,1.8-.2c2.2,2.4,5.4,3.9,8.8,3.9s6.6-1.5,8.8-3.9c.6.1,1.2.2,1.8.2,4.9,0,8.8-4.1,8.8-9.3s-4-9.3-8.8-9.3ZM25,24.1h0,0ZM40.7,17.9v-1.3h-1.9v2.8c-.6.3-1.2.6-1.9.7v-3.5h-1.9v3.7c-.3,0-.6,0-1-.1l-.8-.2v-3.4h-1.9v5c-.6.5-1.2.9-1.9,1.2v-6.3h-1.9v7c-.6.2-1.2.3-1.9.4v-7.4h-1.9v7.4c-.6,0-1.3-.2-1.9-.4v-7h-1.9v6.3c-.7-.3-1.3-.8-1.9-1.2v-5h-1.9v3.4l-.8.2c-.4,0-.7,0-1,.1v-3.7h-1.9v3.5c-.7-.1-1.3-.4-1.9-.7v-2.8h-1.9v1.3c-1.1-1.3-1.9-3.1-1.9-5,0-4.1,3.1-7.4,7-7.4s2.4.3,2.4.3l.7-.8c2-2.1,4.6-3.3,7.5-3.3s5.5,1.2,7.5,3.3l.7.8s2-.3,2.4-.3c3.9,0,7,3.3,7,7.4s-.7,3.7-1.9,5Z"/>
</svg>