<?xml version="1.0" encoding="UTF-8"?>
<svg id="Layer_1" data-name="Layer 1" xmlns="http://www.w3.org/2000/svg" version="1.1" viewBox="0 0 50 50">
  <defs>
    <style>
      .cls-1 {
        fill: #ee3d3c;
        stroke-width: 0px;
      }
    </style>
  </defs>
  <path class="cls-1" d="M29.5,0c1,.2,1.9.6,2.6,1.3,1.1,1,1.6,2.2,1.7,3.6,0,1.3,0,2.5,0,3.8.2,0,.4,0,.6,0,3.9,0,7.8,0,11.7,0,1.7,0,2.9.9,3.2,2.4.2,1.1-.1,2.1-1,3,.6.7,1,1.4,1,2.3,0,.9-.4,1.7-1,2.3,1.8,1.7,1.2,4.4-1.1,5.3.1.6.3,1.2.3,1.8,0,1.7-1.3,3-3.1,3-.9,0-1.8,0-2.7,0-.2,0-.3,0-.5,0,.1.2.2.3.3.4,4.4,6.1,1,14.6-6.4,15.9-2.5.4-4.8,0-6.9-1.3-.5-.3-.7-.7-.4-1.1.2-.4.6-.4,1.2-.1,3.1,1.7,6.1,1.7,9.1-.1,3-1.9,4.5-5.6,3.8-9.1-.8-3.5-3.7-6.2-7.2-6.7-3.6-.4-6.6.9-8.5,4-1.9,3.1-1.8,6.3.2,9.3,0,0,.1.2.2.3.2.4.1.8-.2,1-.3.2-.8.2-1-.2-.5-1-1-1.9-1.5-2.9-.2-.5-.3-1-.4-1.6,0-.3-.2-.3-.4-.3-.9.1-1.3.5-1.3,1.4,0,.6,0,1.2,0,1.9,0,1.4-1,2.4-2.4,2.4-1.1,0-2.3,0-3.4,0-1.4,0-2.3-1-2.3-2.4,0-.7,0-1.3,0-2,0-.7-.1-.9-.8-1.2-.7-.3-.9-.3-1.3.2-.5.5-.9,1-1.4,1.4-1,1-2.4,1-3.4,0-.8-.8-1.6-1.6-2.3-2.3-1-1-1-2.3,0-3.4.5-.5,1-1,1.5-1.5.5-.4.4-.9.2-1.4-.2-.5-.5-.8-1-.7-.7,0-1.4,0-2.1,0-1.4,0-2.4-1-2.4-2.4,0-1.1,0-2.3,0-3.4,0-1.4,1-2.3,2.3-2.3.7,0,1.4,0,2.1,0,.6,0,.8-.3,1-.8.2-.5.3-.9-.2-1.3-.5-.5-1-1-1.5-1.5-.9-1-1-2.3,0-3.3.8-.8,1.6-1.6,2.5-2.5,1-1,2.3-.9,3.3,0,.5.5,1,1,1.5,1.5.4.4.8.4,1.2.2.5-.2.9-.4.9-1.1,0-.7,0-1.4,0-2.1,0-1.4.9-2.4,2.4-2.4,1.1,0,2.2,0,3.4,0,1.4,0,2.3,1,2.4,2.4,0,.7,0,1.4,0,2.1,0,.6.3.8.8,1,.5.2.9.3,1.3-.1.5-.5.9-.9,1.4-1.4.5-.5,1-.8,1.7-.8,0-.8,0-1.6,0-2.3,0-.3,0-.6,0-.8,0-.4.4-.7.8-.7.4,0,.6.3.7.7,0,.2,0,.3,0,.5,0,4.9,0,9.7,0,14.6,0,1.1.3,2.1,1,3,0,.1.4.2.5.2,2.8-1,5.5-.8,8.1.4,0,0,0,0,.2,0,0-.9.1-1.7.7-2.4-2.1-1.5-1.9-3.7-.5-5.1-1.4-1.6-1.4-3,0-4.7-1.1-1.1-1.4-2.4-.6-3.9-.6,0-1.1,0-1.6,0-.7,0-1.5,0-2.2,0-1,0-1.6-.6-1.6-1.6,0-1.2,0-2.4,0-3.6,0-1.8-1.3-3.3-3.1-3.5-.6,0-.7,0-.7.6,0,.7,0,1.3,0,2,0,.5-.3.8-.7.8-.4,0-.7-.3-.7-.8,0-.8,0-1.6,0-2.4C27.1.8,27.6.3,28.3,0h1.2ZM23.5,34.8c0-1.6.5-3.2,1.4-4.6.9-1.5,2-2.6,3.5-3.5-1-1.3-1.3-2.7-1.3-4.3,0-3.2,0-6.4,0-9.6s0-.3,0-.6c-.3.2-.5.3-.6.5-.5.5-1,1-1.5,1.5-.9.8-1.8.8-2.9.4-1-.4-1.6-1.1-1.6-2.3,0-.7,0-1.4,0-2.1,0-.7-.3-1-1-1-1.1,0-2.1,0-3.2,0-.7,0-1,.3-1,1,0,.7,0,1.4,0,2.1,0,1.2-.7,2-1.8,2.4-1.1.4-2,.3-2.8-.5-.5-.5-1-1-1.5-1.4-.5-.5-.9-.5-1.4,0-.8.8-1.5,1.5-2.3,2.3-.5.5-.5.9,0,1.4.5.5,1,1,1.4,1.5.8.8.9,1.8.5,2.9-.4,1.1-1.2,1.7-2.4,1.7-.7,0-1.4,0-2.1,0-.6,0-.9.3-.9.9,0,1.1,0,2.2,0,3.3,0,.7.3,1,1,1,.7,0,1.3,0,2,0,1.2,0,1.9.5,2.4,1.6.5,1.1.4,2.1-.5,3-.5.5-1,1-1.4,1.5-.4.5-.5.9,0,1.3.8.8,1.6,1.6,2.3,2.3.4.4.9.4,1.3,0,.5-.5,1-1,1.5-1.4.8-.8,1.8-1,2.9-.5,1.1.4,1.8,1.2,1.8,2.4,0,.7,0,1.3,0,2,0,.7.3,1,1,1,1,0,2.1,0,3.1,0,.7,0,1-.3,1-1,0-.7,0-1.4,0-2.1,0-1,.5-1.7,1.4-2.1.5-.2,1.1-.4,1.7-.6ZM43.4,18.1c1,0,1.9,0,2.9,0,.9,0,1.6-.7,1.7-1.6,0-.9-.6-1.6-1.6-1.6-2,0-4,0-6,0-.9,0-1.6.7-1.6,1.6,0,.9.7,1.6,1.7,1.6,1,0,1.9,0,2.9,0ZM43.4,22.8c1,0,1.9,0,2.9,0,1,0,1.7-.7,1.7-1.6,0-.9-.7-1.6-1.7-1.6-1.9,0-3.8,0-5.7,0-1,0-1.7.7-1.7,1.6,0,.9.7,1.6,1.8,1.6.9,0,1.9,0,2.8,0ZM43.4,13.4c1,0,1.9,0,2.9,0,1,0,1.7-.6,1.7-1.6,0-.9-.7-1.6-1.7-1.6-1.9,0-3.9,0-5.8,0-1,0-1.7.7-1.7,1.6,0,.9.7,1.6,1.7,1.6,1,0,1.9,0,2.9,0ZM43,24.2c-.6,0-1.1,0-1.7,0-.8,0-1.5.6-1.6,1.5,0,.8.5,1.6,1.3,1.7,1.3,0,2.6,0,3.9,0,.8,0,1.4-.8,1.3-1.7,0-.8-.7-1.5-1.6-1.5-.6,0-1.1,0-1.7,0Z"/>
  <path class="cls-1" d="M48.2,35.3c0,7.2-5.1,13.3-12.1,14.5-5.3.9-9.8-.7-13.5-4.6-.4-.4-.4-.8,0-1.2.3-.3.8-.3,1.1.2,2.1,2.3,4.7,3.7,7.8,4.2,6.8,1.1,13.5-3.4,15-10.2.5-2.1.4-4.2,0-6.3,0,0,0-.2,0-.2,0-.5,0-.8.5-.9.4-.1.8,0,.9.5.2.9.4,1.8.5,2.8,0,.4,0,.8,0,1.2Z"/>
  <path class="cls-1" d="M32.5,37.7c.9-1.1,1.8-2.1,2.7-3.1.8-.9,1.6-1.8,2.4-2.7.3-.3.6-.4,1-.2.3.2.4.5.3.8,0,.1-.1.3-.3.4-1.8,2.1-3.6,4.1-5.5,6.2-.5.5-.9.5-1.3,0-1.1-1.2-2.2-2.5-3.3-3.7-.4-.5-.4-.9,0-1.2.3-.3.8-.2,1.1.2.9,1.1,1.9,2.2,2.9,3.3Z"/>
  <path class="cls-1" d="M17.2,17.2c4.6,0,8,3.1,8.3,7.1.3,4-2.7,7.6-6.6,8.1-3.9.5-7.4-1.8-8.5-5.4-.2-.6,0-1,.4-1.2.5-.1.8.1,1,.8.8,2.7,3.3,4.5,6.1,4.4,2.7,0,5.1-1.9,5.9-4.5.9-3.2-.9-6.6-4.1-7.6-3.2-1-6.7.8-7.7,4,0,.2,0,.3-.1.5-.2.4-.5.6-.9.5-.4-.1-.6-.5-.5-.9.2-.6.4-1.3.8-1.9,1.5-2.5,3.7-3.8,6-3.8Z"/>
  <path class="cls-1" d="M21.9,24.8c0,2.3-1.9,4.1-4.1,4.1-2.3,0-4.1-1.9-4.1-4.1,0-2.3,1.9-4.1,4.1-4.1,2.3,0,4.1,1.9,4.1,4.1ZM20.4,24.8c0-1.5-1.2-2.7-2.7-2.6-1.5,0-2.6,1.2-2.6,2.7,0,1.4,1.2,2.6,2.7,2.6,1.5,0,2.7-1.2,2.6-2.7Z"/>
</svg>