<?xml version="1.0" encoding="UTF-8"?>
<svg id="Layer_1" data-name="Layer 1" xmlns="http://www.w3.org/2000/svg" version="1.1" viewBox="0 0 50 50">
  <defs>
    <style>
      .cls-1 {
        fill: #ee3d3c;
        stroke-width: 0px;
      }
    </style>
  </defs>
  <path class="cls-1" d="M50,49.4c-.2.4-.6.5-1,.5-8.1,0-16.3,0-24.4,0-.4,0-.8,0-1-.5-.2-.4,0-.7.4-1,1.2-1.2,2.4-2.4,3.6-3.6.1-.1.2-.2.4-.4h-.7c-7.2,0-14.4,0-21.5,0-2.3,0-4-1-5.1-3-.4-.8-.7-1.6-.7-2.5C0,28.6,0,18.3,0,8c0-3.2,2.4-5.7,5.5-5.8.8,0,1,.2,1,1,0,2.1,0,4.2,0,6.3,0,.2,0,.4,0,.6h.6c7.2,0,14.4,0,21.6,0,.4,0,.6-.1.9-.4,2.9-3,5.9-5.9,8.8-8.8,1.2-1.2,2.4-1.2,3.7,0,.6.6,1.2,1.2,1.8,1.8,1.2,1.2,1.2,2.4,0,3.6-1.1,1.1-2.2,2.2-3.3,3.4-.1.1-.2.2-.4.4.3,0,.5,0,.6,0,1.5,0,3.1,0,4.6,0,.9,0,1.1.2,1.1,1.1,0,4.6,0,9.2,0,13.8v.7c.3-.3.6-.5.8-.8.4-.4.8-.8,1.2-1.2.6-.6.9-.6,1.5,0v25.5ZM1.5,35.3c.2-.2.3-.3.4-.4.8-.7,1.7-1.2,2.7-1.4.4,0,.5-.2.5-.6,0-1.3,0-2.6,0-4,0-.6.3-.9.7-.9.4,0,.7.3.7.9,0,1.7,0,3.3,0,5,0,.6-.3.8-.9.9-.6,0-1.1.2-1.6.4-1.6.7-2.7,2.5-2.5,4.1.3,2.3,1.9,3.6,4.2,3.6,7.8,0,15.6,0,23.3,0,.2,0,.5-.1.6-.3.9-.9,1.8-1.8,2.7-2.6.3-.3.8-.3,1.1,0,.3.3.3.7,0,1.1,0,.1-.2.2-.3.3-2.2,2.2-4.4,4.4-6.6,6.6-.1.1-.2.2-.4.4h22.4v-3.5c-.5,0-.9,0-1.3,0-.5,0-.9-.6-.6-1,.1-.2.5-.4.8-.4.4,0,.8,0,1.2,0v-2.2c-.4,0-.8,0-1.2,0-.5,0-.8-.3-.8-.7,0-.4.3-.7.8-.7.4,0,.8,0,1.2,0v-2.2c-.4,0-.8,0-1.2,0-.5,0-.9-.3-.9-.7,0-.4.3-.7.8-.7.4,0,.8,0,1.2,0v-2.2c-.4,0-.8,0-1.2,0-.6,0-.9-.3-.9-.7,0-.5.3-.7.9-.8.4,0,.8,0,1.2,0v-6.4s0,0-.1,0c0,.1-.2.3-.3.4-2.2,2.2-4.4,4.4-6.7,6.7-1.9,1.9-3.8,3.8-5.7,5.7-.4.4-.8.4-1.1.1-.3-.3-.3-.7,0-1.2,0,0,.2-.2.2-.2,3.3-3.3,6.5-6.5,9.8-9.8.3-.3.4-.5.4-.9,0-4.9,0-9.7,0-14.6s0-.4,0-.6h-.6c-1.8,0-3.6,0-5.4,0-.3,0-.6.1-.8.3-4.3,4.3-8.6,8.6-12.9,12.9-1.3,1.4-2.8,2.4-4.7,2.9-.6.1-1.1.4-1.7.6,0,0,0,0,0,0,.2,0,.3,0,.5,0,4.5,0,9,0,13.5,0,.6,0,1,.3,1,.7,0,.4-.3.7-.9.7-6.7,0-13.3,0-20,0-.6,0-.9-.3-.9-.7,0-.4.3-.7.9-.7.6,0,1.2,0,1.9,0,.3,0,.5-.1.6-.4.7-2.1,1.4-4.1,2.2-6.2,0-.2.2-.5.4-.7,1.1-1.1,2.1-2.1,3.2-3.2.1-.1.2-.3.3-.3.3,0,.6,0,.8.2.2.2.2.5.1.8,0,.2-.2.3-.4.5-.9.9-1.8,1.8-2.6,2.6,1.1,1.1,2.2,2.3,3.3,3.3,5-5,10.1-10.1,15.1-15.1-1.1-1.1-2.2-2.2-3.3-3.4,0,.1-.2.3-.3.4-3.1,3.1-6.3,6.3-9.4,9.4-.1.1-.3.4-.5.4-.3,0-.6,0-.8-.1-.2-.2-.2-.5-.1-.8,0-.2.2-.3.4-.5,1-1.1,2.1-2.1,3.1-3.1.2-.2.4-.4.6-.5,0,0,0,0,0-.1H6.5v.6c0,4.4,0,8.7,0,13.1,0,.2,0,.5,0,.7,0,.4-.4.5-.7.5-.3,0-.6-.2-.6-.6,0-.2,0-.4,0-.6,0-7,0-14,0-20.9,0-.2,0-.4,0-.6-.2,0-.3,0-.4,0-1.9.5-3.2,2.2-3.2,4.4,0,8.9,0,17.7,0,26.6,0,.1,0,.3,0,.5ZM41.8,6.6c.4-.4.9-.9,1.3-1.4.3-.4.4-.8,0-1.1-.7-.8-1.5-1.5-2.3-2.3-.3-.3-.7-.3-1.1,0-.5.5-1,.9-1.4,1.4,1.1,1.1,2.2,2.2,3.4,3.4ZM36.1,5.6c1.1,1.1,2.2,2.2,3.2,3.2.4-.4.9-.8,1.3-1.2-1.1-1.1-2.2-2.2-3.3-3.3-.4.4-.8.8-1.2,1.2ZM19,23.3c-.9,1.8-.9,1.9.4,3.1,0,0,0,.1.1.1,0,0,.2,0,.3,0,.6-.2,1.3-.4,1.8-.7-.9-.9-1.8-1.8-2.7-2.7Z"/>
  <path class="cls-1" d="M40,44.7c-1.3,0-2.5,0-3.8,0-.4,0-.7,0-.9-.5-.2-.4,0-.7.3-1,2.6-2.6,5.1-5.1,7.7-7.7.3-.3.6-.5,1-.3.4.2.5.5.5.9,0,2.5,0,5,0,7.5,0,.8-.3,1-1,1-1.2,0-2.5,0-3.7,0ZM43.2,43.2v-5.3c-1.8,1.8-3.5,3.5-5.3,5.3h5.3Z"/>
</svg>