<?xml version="1.0" encoding="UTF-8"?>
<svg id="Layer_1" data-name="Layer 1" xmlns="http://www.w3.org/2000/svg" version="1.1" viewBox="0 0 50 50">
  <defs>
    <style>
      .cls-1 {
        fill: #ee3d3c;
        stroke-width: 0px;
      }
    </style>
  </defs>
  <path class="cls-1" d="M12.1,33.4c0-.4,0-.7.1-1.1.2-1.8.9-3.5,1.7-5.1.6-1.1,1-2.4,1.3-3.7.6-2.8-.4-5.2-2.4-7.2-1.1-1.1-2.3-2.1-3.5-3.2-.7-.7-1.3-1.4-1.8-2.2-.7-1.2-.4-2.3.9-2.9,1.4-.6,2.8-1.1,4.3-1.4,5.7-1.1,11.5-1.1,17.3-.5,2.5.2,5,.5,7.4,1.6,1.7.7,2.1,1.3,2,3.2,0,1.1-.2,2.3-.3,3.5,1-.5,1.8-1,2.1-2,.1-.5.3-.9.9-.8.7.1.6.7.5,1.2-.2,1.1-1,2-2,2.5-1.4.7-2.3,1.7-2.9,3.2-1.2,3.1-3.7,5.3-6.3,7.3-2.4,1.9-4.8,3.7-6.7,6.2-.6.8-1.1,1.7-1.6,2.6,2-.1,3.9-.5,5.6-1.5.5-.3,1-.7,1.4-1.1.6-.5.7-1.2.3-2-.2-.4-.4-.9.2-1.2.6-.3.9.2,1.1.6.6,1.2.4,2.6-.7,3.6-1.7,1.7-3.9,2.3-6.1,2.8-.6.1-1.2.3-1.9.3-.8,0-1.2.4-1.4,1.2-.5,2-1.1,4.1-1.6,6.1-.3,1.1-.6,1.3-1.6.7-3.1-2-5.5-4.5-6.2-8.2,0-.3-.5-.6-.8-.8-1-.6-2-1-2.9-1.8-1.7-1.3-1.7-3.4,0-4.8.6-.6,1.4-1,2.1-1.4.2-.1.6.1,1,.2-.1.3-.1.8-.4,1-.6.5-1.4.9-1.9,1.4-.8.8-.8,1.7,0,2.4.8.7,1.7,1.2,2.5,1.8,0,0,.2-.2.3-.2ZM11.2,12.4c0,0,0,.1-.1.2.7.6,1.3,1.2,2,1.8,1.8,1.7,3.4,3.7,3.7,6.3.3,2.9-.4,5.6-1.9,8-.9,1.4-1.1,2.9-1.2,4.4,0,.6.2,1,.8,1.1,2.1.2,4.2.4,6.3.5.3,0,.7-.3.9-.6,1.1-1.5,2-3.2,3.3-4.5,2.1-2.1,4.5-4,6.8-6,1.7-1.4,3.2-3,4.3-4.9.3-.5.5-1.1.8-1.7-.4,0-.5,0-.7,0-4.4,1.2-8.8,1.5-13.3,1.3-1.2,0-2.3-.2-3.5-.3-.2,0-.5-.3-.6-.6,0-.1.1-.6.3-.6.3-.1.7-.1,1.1-.1,1.8,0,3.6.2,5.4.2,3.8,0,7.5-.4,11.2-1.6.3-.1.8-.3.8-.6.2-1,.3-2.1.5-3.1-9,2.5-17.9,2.3-26.8.7ZM23.4,7.2c-.9,0-1.8,0-2.7,0-3.5.1-7,.4-10.4,1.6-.5.2-.9.6-1.4.9.5.3,1,.6,1.4.9,0,0,.2,0,.3.1,3,.9,6.1,1.2,9.1,1.4,4.6.2,9.2.1,13.7-.7,1.3-.2,2.6-.7,3.9-1.1.2,0,.5-.4.5-.6,0-.1-.3-.4-.5-.5-.4-.2-.8-.4-1.3-.5-4.2-1.2-8.5-1.4-12.8-1.4ZM14,35.8c-.3,1.8,3.3,6.3,4.8,6.4.5-1.9,1.1-3.9,1.7-5.8-2.2-.2-4.3-.4-6.5-.6Z"/>
</svg>