<?xml version="1.0" encoding="UTF-8"?>
<svg id="Layer_1" data-name="Layer 1" xmlns="http://www.w3.org/2000/svg" version="1.1" viewBox="0 0 50 50">
  <defs>
    <style>
      .cls-1 {
        fill: #ee3d3c;
        stroke-width: 0px;
      }
    </style>
  </defs>
  <g>
    <path class="cls-1" d="M50,38.1s0,0,0,0c-.8,2.6-2.1,3.5-4.8,3.5-.5,0-.9,0-1.4,0v-2.1c.6,0,1.2,0,1.8,0,1.6,0,2.4-.7,2.4-2.4,0-10.9,0-21.8,0-32.8,0-1.6-.7-2.4-2.4-2.4-13.7,0-27.4,0-41.1,0-1.7,0-2.4.7-2.4,2.4,0,10.9,0,21.8,0,32.7,0,1.3.5,2,1.5,2.3.3,0,.6,0,1,0,4.5,0,9,0,13.6,0h.6v2.1h-.5c-4.6,0-9.1,0-13.7,0C1.8,41.7,0,39.9,0,37.2,0,26.3,0,15.5,0,4.6,0,2.1,1.1.7,3.4,0c0,0,0,0,0,0,14.3,0,28.6,0,43,0,.2,0,.3.1.5.2,1.4.4,2.3,1.3,2.8,2.6.1.3.2.5.2.8v34.5Z"/>
    <path class="cls-1" d="M39.6,50c-.5-.2-.8-.4-1.2-.6-2.2-1.1-4.4-2.2-6.7-3.3-.3-.2-.5-.2-.9,0-2.4,1.2-4.9,2.5-7.4,3.7-.2,0-.3.1-.5.3,0-.3,0-.5,0-.6,0-5.5,0-11,0-16.5,0-.4,0-.6-.4-.9-6.6-6.5-4.3-17.3,4.2-20.7,7.3-2.9,15.5,1.9,16.8,9.6.7,4.3-.6,8-3.6,11.1-.3.3-.3.5-.3.9,0,5.5,0,11,0,16.5,0,.2,0,.4,0,.7ZM31.3,33.3c5.8,0,10.4-4.6,10.4-10.4,0-5.8-4.6-10.4-10.4-10.4-5.8,0-10.5,4.6-10.4,10.4,0,5.8,4.6,10.4,10.4,10.4ZM37.5,46.7v-12.9c-4.2,2.2-8.3,2.2-12.4,0v12.9c.2,0,.3-.2.5-.2,1.8-.9,3.6-1.8,5.4-2.7.2,0,.5,0,.7,0,.9.4,1.7.8,2.6,1.3,1.1.5,2.2,1.1,3.3,1.7Z"/>
    <path class="cls-1" d="M16.6,14.6v2H6.3v-2h10.4Z"/>
    <path class="cls-1" d="M14.5,22.9H6.3v-2.1h8.3v2.1Z"/>
    <path class="cls-1" d="M20.8,8.4v2h-6.2v-2h6.2Z"/>
    <path class="cls-1" d="M6.3,8.4h4.1v2h-4.1v-2Z"/>
    <path class="cls-1" d="M31.3,16.7c3.6,0,6.2,2.7,6.2,6.3,0,3.5-2.7,6.2-6.2,6.2-3.5,0-6.3-2.7-6.3-6.3,0-3.5,2.7-6.2,6.3-6.2ZM31.2,27.1c2.3,0,4.2-1.9,4.2-4.1,0-2.3-1.9-4.2-4.2-4.2-2.3,0-4.2,1.9-4.2,4.1,0,2.3,1.9,4.2,4.2,4.2Z"/>
  </g>
  <g>
    <path class="cls-1" d="M136.5,42.6h6.5c1.5,0,1.6,0,1.6,1.6,0,4.5,0,8.9,0,13.4,0,.9-.2,1.2-1.2,1.2-2.1,0-4.2,0-6.3,0h-.6c0,.8,0,1.5,0,2.2,0,2.5-1.7,4.3-4.3,4.3-11.1,0-22.3,0-33.4,0-2.5,0-4.2-1.7-4.3-4.2,0-7.9,0-15.8,0-23.7,0-.9.2-1.1,1.1-1.1,1.8,0,3.5,0,5.4,0v-.6c0-6.4,0-12.8,0-19.1,0-1,.2-1.2,1.2-1.2,11,0,22,0,33.1,0,1,0,1.2.2,1.2,1.2,0,8.5,0,17,0,25.5v.7ZM123.5,44.2c0-1.7,0-3.3,0-4.8,0-1.4.9-2.7,2.3-3.1.5-.1,1-.1,1.5-.2.8,0,1,.3,1,1,0,1.3,0,2.6,0,3.9,0,.2.1.5.3.6.7.8,1.5,1.5,2.2,2.3.1.1.2.2.4.2.6,0,1.3,0,1.8,0,.1-.5.1-1.1.4-1.3.3-.3.8-.3,1.3-.4v-25.6h-32.2v.7c0,13.9,0,27.9,0,41.8,0,1.4.2,2.9-.8,4.3h.7c6.6,0,13.1,0,19.7,0,3.4,0,6.9,0,10.3,0,1.3,0,2.3-.9,2.4-2.1,0-.9,0-1.8,0-2.6-.5-.1-1-.1-1.3-.4-.3-.3-.3-.8-.4-1.3-1.1,0-2.3-.1-3.4.6-.5.3-1,.5-1.5.8-.3.1-.6.2-.9.2-3.1,0-6.1,0-9.2,0-1.6,0-2.6-1-2.6-2.6,0-3.1,0-6.1,0-9.2,0-1.7,1-2.7,2.7-2.7,1.8,0,3.5,0,5.4,0ZM117.1,50.7h6.4v1.6h-6.4v1.6h6.4v1.6h-6.4c0,1.4,0,1.6,1.4,1.6,1.9,0,3.9,0,5.8,0,2.1.1,4-.2,5.8-1.4.3-.2.7-.2,1-.3.7,0,1.4,0,2,0v-9.7c-.7,0-1.5,0-2.2,0-.3,0-.7-.2-.9-.4-1-.9-1.9-1.9-2.9-2.9-.3-.3-.4-.6-.4-1,0-1.2,0-2.5,0-3.7-1,0-1.6.7-1.6,1.6,0,1.7,0,3.5,0,5.2,0,.9-.2,1.1-1.1,1.1-2,0-4,0-5.9,0-.6,0-.9.3-1,.8,0,.3,0,.5,0,.8h6.4v1.6h-6.4v1.6ZM96.1,37.8v.5c0,7.5,0,15,0,22.6,0,.2,0,.3,0,.5,0,1.2,1.1,2.2,2.4,2.2,1.4,0,2.5-1.1,2.5-2.5,0-7.6,0-15.3,0-22.9,0-.1,0-.2,0-.4h-4.8ZM142.9,44.3h-8v12.8h8v-12.8Z"/>
    <path class="cls-1" d="M108.2,23.1c0-.2,0-.3,0-.4,0-.8.3-1.1,1-1.1,2.2,0,4.4-.4,6.4-1.4.8-.4,1.6-1,2.4-1.5.5-.3.8-.4,1.3,0,2.6,2,5.6,3,8.9,3,.7,0,1,.3,1,1-.1,5.5-2.3,10-6.4,13.6-1.1,1-2.2,1.9-3.4,2.8-.5.5-.8.5-1.4,0-1.8-1.6-3.6-3-5.2-4.7-2.7-2.8-4.1-6.3-4.5-10.2,0-.4,0-.7,0-1ZM109.9,23.4c.2,3.5,1.4,6.7,3.7,9.4,1.2,1.5,2.8,2.7,4.3,4,.3.2.6.5.8.7,5-3.5,8.6-7.8,8.9-14.2,0,0-.1,0-.1,0-3.1-.1-5.9-1.1-8.5-2.9-.3-.2-.4,0-.6,0-1.4.9-2.8,1.7-4.4,2.1-1.3.3-2.7.5-4.1.8Z"/>
    <path class="cls-1" d="M113.3,38c.4.4.8.8,1.2,1.2-.6.6-1.3,1.2-1.9,1.8-.2.2-.3.5-.3.7,0,1.6,0,3.1,0,4.7,0,.7-.3,1-1,1-2,0-4.1,0-6.1,0-.7,0-1-.3-1-1,0-2,0-4.1,0-6.1,0-.7.3-1,1-1,2.2,0,4.4,0,6.5,0,.1,0,.3-.1.4-.2.4-.4.8-.8,1.2-1.2ZM105.8,45.8h4.8v-2.9c-.6.6-1.2,1.2-1.7,1.8-.3.3-.7.5-1.1.2-.6-.5-1.1-1.2-1.6-1.7.3-.3.7-.7,1.1-1.2.3.4.6.7.9,1,.7-.7,1.4-1.4,2-2h-4.2v4.8Z"/>
    <path class="cls-1" d="M113.3,47.6c.4.4.6.7.9,1,0,0,.1.1.2.3-.6.6-1.2,1.2-1.8,1.7-.3.3-.4.6-.4,1.1,0,1.5,0,3,0,4.5,0,.7-.3,1-1,1-2,0-4,0-6,0-.7,0-1-.3-1-1,0-2,0-4.1,0-6.1,0-.7.3-1,1-1,2,0,4,0,5.9,0,.6,0,1-.1,1.4-.6.2-.3.5-.6.8-.9ZM105.8,50.7v4.8h4.8v-2.9c-.6.6-1.2,1.2-1.7,1.8-.4.4-.8.5-1.2.1-.6-.5-1.1-1.1-1.6-1.6.4-.4.7-.8,1.2-1.2.3.4.6.7.8,1,.7-.7,1.4-1.4,2-2h-4.2Z"/>
    <path class="cls-1" d="M126,25.8c-.1.4-.2,1-.4,1.6-.7,2.2-2,4-3.7,5.5-.8.7-1.7,1.4-2.5,2.1-.4.3-.8.4-1.1,0-1.3-1.2-2.7-2.3-3.9-3.6-1.5-1.6-2.3-3.5-2.8-5.6-.1-.7.2-1.1.8-1.1,2.1,0,4-.8,5.6-2.1.7-.5.8-.5,1.5,0,1.7,1.3,3.5,2,5.6,2.1.5,0,.9.3.9,1ZM124.1,26.5c-1-.3-1.9-.5-2.8-.8-.9-.4-1.7-.9-2.6-1.4-1.5,1.2-3.3,1.9-5.3,2.1.8,3.1,3,5.2,5.4,7,2.4-1.9,4.6-3.9,5.4-6.9Z"/>
  </g>
  <g>
    <path class="cls-1" d="M158.5-24.4c1,.2,1.9.6,2.6,1.3,1.1,1,1.6,2.2,1.7,3.6,0,1.3,0,2.5,0,3.8.2,0,.4,0,.6,0,3.9,0,7.8,0,11.7,0,1.7,0,2.9.9,3.2,2.4.2,1.1-.1,2.1-1,3,.6.7,1,1.4,1,2.3,0,.9-.4,1.7-1,2.3,1.8,1.7,1.2,4.4-1.1,5.3.1.6.3,1.2.3,1.8,0,1.7-1.3,3-3.1,3-.9,0-1.8,0-2.7,0-.2,0-.3,0-.5,0,.1.2.2.3.3.4,4.4,6.1,1,14.6-6.4,15.9-2.5.4-4.8,0-6.9-1.3-.5-.3-.7-.7-.4-1.1.2-.4.6-.4,1.2-.1,3.1,1.7,6.1,1.7,9.1-.1,3-1.9,4.5-5.6,3.8-9.1-.8-3.5-3.7-6.2-7.2-6.7-3.6-.4-6.6.9-8.5,4-1.9,3.1-1.8,6.3.2,9.3,0,0,.1.2.2.3.2.4.1.8-.2,1-.3.2-.8.2-1-.2-.5-1-1-1.9-1.5-2.9-.2-.5-.3-1-.4-1.6,0-.3-.2-.3-.4-.3-.9.1-1.3.5-1.3,1.4,0,.6,0,1.2,0,1.9,0,1.4-1,2.4-2.4,2.4-1.1,0-2.3,0-3.4,0-1.4,0-2.3-1-2.3-2.4,0-.7,0-1.3,0-2,0-.7-.1-.9-.8-1.2-.7-.3-.9-.3-1.3.2-.5.5-.9,1-1.4,1.4-1,1-2.4,1-3.4,0-.8-.8-1.6-1.6-2.3-2.3-1-1-1-2.3,0-3.4.5-.5,1-1,1.5-1.5.5-.4.4-.9.2-1.4-.2-.5-.5-.8-1-.7-.7,0-1.4,0-2.1,0-1.4,0-2.4-1-2.4-2.4,0-1.1,0-2.3,0-3.4,0-1.4,1-2.3,2.3-2.3.7,0,1.4,0,2.1,0,.6,0,.8-.3,1-.8.2-.5.3-.9-.2-1.3-.5-.5-1-1-1.5-1.5-.9-1-1-2.3,0-3.3.8-.8,1.6-1.6,2.5-2.5,1-1,2.3-.9,3.3,0,.5.5,1,1,1.5,1.5.4.4.8.4,1.2.2.5-.2.9-.4.9-1.1,0-.7,0-1.4,0-2.1,0-1.4.9-2.4,2.4-2.4,1.1,0,2.2,0,3.4,0,1.4,0,2.3,1,2.4,2.4,0,.7,0,1.4,0,2.1,0,.6.3.8.8,1,.5.2.9.3,1.3-.1.5-.5.9-.9,1.4-1.4.5-.5,1-.8,1.7-.8,0-.8,0-1.6,0-2.3,0-.3,0-.6,0-.8,0-.4.4-.7.8-.7.4,0,.6.3.7.7,0,.2,0,.3,0,.5,0,4.9,0,9.7,0,14.6,0,1.1.3,2.1,1,3,0,.1.4.2.5.2,2.8-1,5.5-.8,8.1.4,0,0,0,0,.2,0,0-.9.1-1.7.7-2.4-2.1-1.5-1.9-3.7-.5-5.1-1.4-1.6-1.4-3,0-4.7-1.1-1.1-1.4-2.4-.6-3.9-.6,0-1.1,0-1.6,0-.7,0-1.5,0-2.2,0-1,0-1.6-.6-1.6-1.6,0-1.2,0-2.4,0-3.6,0-1.8-1.3-3.3-3.1-3.5-.6,0-.7,0-.7.6,0,.7,0,1.3,0,2,0,.5-.3.8-.7.8-.4,0-.7-.3-.7-.8,0-.8,0-1.6,0-2.4,0-.9.6-1.3,1.3-1.7h1.2ZM152.5,10.4c0-1.6.5-3.2,1.4-4.6.9-1.5,2-2.6,3.5-3.5-1-1.3-1.3-2.7-1.3-4.3,0-3.2,0-6.4,0-9.6s0-.3,0-.6c-.3.2-.5.3-.6.5-.5.5-1,1-1.5,1.5-.9.8-1.8.8-2.9.4-1-.4-1.6-1.1-1.6-2.3,0-.7,0-1.4,0-2.1,0-.7-.3-1-1-1-1.1,0-2.1,0-3.2,0-.7,0-1,.3-1,1,0,.7,0,1.4,0,2.1,0,1.2-.7,2-1.8,2.4-1.1.4-2,.3-2.8-.5-.5-.5-1-1-1.5-1.4-.5-.5-.9-.5-1.4,0-.8.8-1.5,1.5-2.3,2.3-.5.5-.5.9,0,1.4.5.5,1,1,1.4,1.5.8.8.9,1.8.5,2.9-.4,1.1-1.2,1.7-2.4,1.7-.7,0-1.4,0-2.1,0-.6,0-.9.3-.9.9,0,1.1,0,2.2,0,3.3,0,.7.3,1,1,1,.7,0,1.3,0,2,0,1.2,0,1.9.5,2.4,1.6.5,1.1.4,2.1-.5,3-.5.5-1,1-1.4,1.5-.4.5-.5.9,0,1.3.8.8,1.6,1.6,2.3,2.3.4.4.9.4,1.3,0,.5-.5,1-1,1.5-1.4.8-.8,1.8-1,2.9-.5,1.1.4,1.8,1.2,1.8,2.4,0,.7,0,1.3,0,2,0,.7.3,1,1,1,1,0,2.1,0,3.1,0,.7,0,1-.3,1-1,0-.7,0-1.4,0-2.1,0-1,.5-1.7,1.4-2.1.5-.2,1.1-.4,1.7-.6ZM172.4-6.3c1,0,1.9,0,2.9,0,.9,0,1.6-.7,1.7-1.6,0-.9-.6-1.6-1.6-1.6-2,0-4,0-6,0-.9,0-1.6.7-1.6,1.6,0,.9.7,1.6,1.7,1.6,1,0,1.9,0,2.9,0ZM172.4-1.7c1,0,1.9,0,2.9,0,1,0,1.7-.7,1.7-1.6,0-.9-.7-1.6-1.7-1.6-1.9,0-3.8,0-5.7,0-1,0-1.7.7-1.7,1.6,0,.9.7,1.6,1.8,1.6.9,0,1.9,0,2.8,0ZM172.4-11c1,0,1.9,0,2.9,0,1,0,1.7-.6,1.7-1.6,0-.9-.7-1.6-1.7-1.6-1.9,0-3.9,0-5.8,0-1,0-1.7.7-1.7,1.6,0,.9.7,1.6,1.7,1.6,1,0,1.9,0,2.9,0ZM172-.2c-.6,0-1.1,0-1.7,0-.8,0-1.5.6-1.6,1.5,0,.8.5,1.6,1.3,1.7,1.3,0,2.6,0,3.9,0,.8,0,1.4-.8,1.3-1.7,0-.8-.7-1.5-1.6-1.5-.6,0-1.1,0-1.7,0Z"/>
    <path class="cls-1" d="M177.3,10.8c0,7.2-5.1,13.3-12.1,14.5-5.3.9-9.8-.7-13.5-4.6-.4-.4-.4-.8,0-1.2.3-.3.8-.3,1.1.2,2.1,2.3,4.7,3.7,7.8,4.2,6.8,1.1,13.5-3.4,15-10.2.5-2.1.4-4.2,0-6.3,0,0,0-.2,0-.2,0-.5,0-.8.5-.9.4-.1.8,0,.9.5.2.9.4,1.8.5,2.8,0,.4,0,.8,0,1.2Z"/>
    <path class="cls-1" d="M161.5,13.3c.9-1.1,1.8-2.1,2.7-3.1.8-.9,1.6-1.8,2.4-2.7.3-.3.6-.4,1-.2.3.2.4.5.3.8,0,.1-.1.3-.3.4-1.8,2.1-3.6,4.1-5.5,6.2-.5.5-.9.5-1.3,0-1.1-1.2-2.2-2.5-3.3-3.7-.4-.5-.4-.9,0-1.2.3-.3.8-.2,1.1.2.9,1.1,1.9,2.2,2.9,3.3Z"/>
    <path class="cls-1" d="M146.2-7.3c4.6,0,8,3.1,8.3,7.1.3,4-2.7,7.6-6.6,8.1-3.9.5-7.4-1.8-8.5-5.4-.2-.6,0-1,.4-1.2.5-.1.8.1,1,.8.8,2.7,3.3,4.5,6.1,4.4,2.7,0,5.1-1.9,5.9-4.5.9-3.2-.9-6.6-4.1-7.6-3.2-1-6.7.8-7.7,4,0,.2,0,.3-.1.5-.2.4-.5.6-.9.5-.4-.1-.6-.5-.5-.9.2-.6.4-1.3.8-1.9,1.5-2.5,3.7-3.8,6-3.8Z"/>
    <path class="cls-1" d="M151,.4c0,2.3-1.9,4.1-4.1,4.1-2.3,0-4.1-1.9-4.1-4.1,0-2.3,1.9-4.1,4.1-4.1,2.3,0,4.1,1.9,4.1,4.1ZM149.5.4c0-1.5-1.2-2.7-2.7-2.6-1.5,0-2.6,1.2-2.6,2.7,0,1.4,1.2,2.6,2.7,2.6,1.5,0,2.7-1.2,2.6-2.7Z"/>
  </g>
</svg>