<?xml version="1.0" encoding="UTF-8"?>
<svg id="Layer_1" data-name="Layer 1" xmlns="http://www.w3.org/2000/svg" version="1.1" viewBox="0 0 50 50">
  <defs>
    <style>
      .cls-1 {
        fill: #ee3d3c;
        stroke-width: 0px;
      }
    </style>
  </defs>
  <path class="cls-1" d="M24.7,50c-1.2-.4-2.4-.8-3.6-1.3-5.2-2.1-9.8-5-13.3-9.4-3.5-4.2-5.3-9-5.3-14.4,0-5.2,0-10.4,0-15.6,0-1.5.3-1.8,1.8-1.9,4.3-.1,8.4-.8,12.5-2.3,1.9-.7,3.7-1.5,5.3-2.8.7-.5,1.3-1.2,1.9-1.8.6-.7,1.5-.7,2,0,1.6,2,3.7,3.2,6.1,4.2,4.2,1.8,8.6,2.6,13.1,2.7.4,0,.8,0,1.2,0,.7,0,1.1.5,1.1,1.2,0,.4,0,.8,0,1.2,0,4.9,0,9.9,0,14.8,0,6.8-2.6,12.4-7.4,17-4,3.9-8.9,6.4-14.2,8.1-.2,0-.4.1-.5.2h-.7ZM5,10c0,.1,0,.3,0,.4,0,4.9,0,9.8,0,14.7,0,1.2.1,2.5.4,3.7.9,4.4,3.1,8,6.3,11.1,3.6,3.5,7.9,5.8,12.7,7.3.4.1.8.2,1.2,0,.7-.3,1.5-.5,2.2-.8,4.8-1.9,9-4.6,12.4-8.6,3-3.6,4.7-7.7,4.8-12.3,0-5.1,0-10.2,0-15.3,0,0,0-.2,0-.2-1.2-.1-2.3-.2-3.4-.3-3.6-.4-7.1-1.3-10.4-2.7-2.2-.9-4.3-2.2-6.1-3.8-5.8,4.9-12.7,6.2-20,6.8Z"/>
  <path class="cls-1" d="M30,22.5c.4,0,.8,0,1.1,0,.9,0,1.4.5,1.4,1.3,0,3.3,0,6.6,0,9.9,0,.8-.5,1.3-1.3,1.3-4.1,0-8.3,0-12.4,0-.8,0-1.3-.5-1.3-1.3,0-3.3,0-6.6,0-9.9,0-.8.5-1.3,1.3-1.3.4,0,.7,0,1.2,0,0-.3,0-.5,0-.7,0-.9,0-1.9.1-2.8.5-2.6,2.8-4.2,5.4-3.9,2.5.2,4.4,2.3,4.4,4.9,0,.8,0,1.6,0,2.5ZM30,25h-9.9v7.4h9.9v-7.4ZM27.5,22.5c0-.9,0-1.7,0-2.5,0-1.3-1-2.3-2.2-2.4-1.2-.1-2.5.7-2.7,1.9-.1,1,0,2,0,3.1h4.9Z"/>
</svg>