<?xml version="1.0" encoding="UTF-8"?>
<svg id="Layer_1" data-name="Layer 1" xmlns="http://www.w3.org/2000/svg" version="1.1" viewBox="0 0 50 50">
  <defs>
    <style>
      .cls-1 {
        fill: #ed3b3b;
      }

      .cls-1, .cls-2 {
        stroke-width: 0px;
      }

      .cls-2 {
        fill: #fff;
      }
    </style>
  </defs>
  <circle class="cls-2" cx="25" cy="25" r="25"/>
  <g>
    <path class="cls-1" d="M33.6,14.6c-1,0-1.9.9-1.9,1.9s.9,1.9,1.9,1.9,1.9-.9,1.9-1.9-.9-1.9-1.9-1.9Z"/>
    <path class="cls-1" d="M25.1,17c-4.4,0-7.9,3.5-7.9,7.9s3.5,7.9,7.9,7.9,7.9-3.5,7.9-7.9c0-4.3-3.5-7.9-7.9-7.9ZM25.1,30.1c-2.8,0-5.1-2.3-5.1-5.1s2.3-5.1,5.1-5.1,5.1,2.3,5.1,5.1-2.2,5.1-5.1,5.1Z"/>
    <g>
      <path class="cls-1" d="M31.5,40.6h-12.8c-5.4,0-9.7-4.3-9.7-9.7v-12.6c0-5.4,4.3-9.7,9.7-9.7h12.6c5.4,0,9.7,4.3,9.7,9.7v12.7c0,5.3-4.2,9.6-9.5,9.6ZM11.2,18.5v13.2c0,3.6,3,6.6,6.6,6.6h13.2c3.6,0,6.6-3,6.6-6.6v-13.2c0-3.6-3-6.6-6.6-6.6h-13.2c-3.6,0-6.6,3-6.6,6.6Z"/>
      <path class="cls-1" d="M31.5,41.1h-12.8c-5.7,0-10.2-4.5-10.2-10.2v-12.6c0-5.7,4.5-10.2,10.2-10.2h12.6c5.7,0,10.2,4.5,10.2,10.2v12.7c0,2.7-.9,5.2-2.8,7.1s-4.5,3-7.2,3ZM18.7,9.1c-5.2,0-9.2,4-9.2,9.2v12.6c0,5.2,4,9.2,9.2,9.2h12.8c2.5,0,4.7-1,6.5-2.7,1.7-1.7,2.6-4,2.5-6.4v-12.7c0-5.2-4-9.2-9.2-9.2,0,0-12.6,0-12.6,0ZM31.1,38.9h-13.3c-3.9,0-7.1-3.2-7.1-7.1v-13.3c0-3.9,3.2-7.1,7.1-7.1h13.2c3.9,0,7.1,3.2,7.1,7.1v13.2c.1,4-3.1,7.2-7,7.2ZM17.8,12.4c-3.4,0-6.1,2.7-6.1,6.1v13.2c0,3.4,2.7,6.1,6.1,6.1h13.2c3.4,0,6.1-2.7,6.1-6.1v-13.2c0-3.4-2.7-6.1-6.1-6.1h-13.2Z"/>
    </g>
  </g>
</svg>