<?xml version="1.0" encoding="utf-8"?>
<!-- Generator: Adobe Illustrator 28.2.0, SVG Export Plug-In . SVG Version: 6.00 Build 0)  -->
<svg version="1.1" id="Layer_1" xmlns="http://www.w3.org/2000/svg" xmlns:xlink="http://www.w3.org/1999/xlink" x="0px" y="0px"
	 viewBox="0 0 50 50" style="enable-background:new 0 0 50 50;" xml:space="preserve">
<style type="text/css">
	.st0{fill:#ED3B3B;}
	.st1{fill:#FFFFFF;}
</style>
<circle class="st0" cx="25" cy="25" r="25"/>
<g>
	<g>
		<g>
			<path class="st1" d="M33.6,14.6c-1,0-1.9,0.9-1.9,1.9s0.9,1.9,1.9,1.9s1.9-0.9,1.9-1.9C35.5,15.4,34.6,14.6,33.6,14.6z"/>
			<path class="st1" d="M25.1,17c-4.4,0-7.9,3.5-7.9,7.9s3.5,7.9,7.9,7.9s7.9-3.5,7.9-7.9C33.1,20.6,29.5,17,25.1,17z M25.1,30.1
				c-2.8,0-5.1-2.3-5.1-5.1s2.3-5.1,5.1-5.1s5.1,2.3,5.1,5.1S28,30.1,25.1,30.1z"/>
			<g>
				<path class="st1" d="M31.5,40.6H18.7c-5.4,0-9.7-4.3-9.7-9.7V18.3c0-5.4,4.3-9.7,9.7-9.7h12.6c5.4,0,9.7,4.3,9.7,9.7V31
					C41.1,36.3,36.8,40.6,31.5,40.6z M11.2,18.5v13.2c0,3.6,3,6.6,6.6,6.6H31c3.6,0,6.6-3,6.6-6.6V18.5c0-3.6-3-6.6-6.6-6.6H17.8
					C14.2,11.9,11.2,14.9,11.2,18.5z"/>
				<path class="st1" d="M31.5,41.1H18.7c-5.7,0-10.2-4.5-10.2-10.2V18.3c0-5.7,4.5-10.2,10.2-10.2h12.6c5.7,0,10.2,4.5,10.2,10.2
					V31c0.1,2.7-0.9,5.2-2.8,7.1C36.8,40,34.2,41.1,31.5,41.1z M18.7,9.1c-5.2,0-9.2,4-9.2,9.2v12.6c0,5.2,4,9.2,9.2,9.2h12.8
					c2.5,0,4.7-1,6.5-2.7c1.7-1.7,2.6-4,2.5-6.4V18.3c0-5.2-4-9.2-9.2-9.2C31.3,9.1,18.7,9.1,18.7,9.1z M31.1,38.9H17.8
					c-3.9,0-7.1-3.2-7.1-7.1V18.5c0-3.9,3.2-7.1,7.1-7.1H31c3.9,0,7.1,3.2,7.1,7.1v13.2C38.2,35.7,35,38.9,31.1,38.9z M17.8,12.4
					c-3.4,0-6.1,2.7-6.1,6.1v13.2c0,3.4,2.7,6.1,6.1,6.1H31c3.4,0,6.1-2.7,6.1-6.1V18.5c0-3.4-2.7-6.1-6.1-6.1H17.8z"/>
			</g>
		</g>
	</g>
</g>
</svg>
