<?xml version="1.0" encoding="utf-8"?>
<!-- Generator: Adobe Illustrator 28.2.0, SVG Export Plug-In . SVG Version: 6.00 Build 0)  -->
<svg version="1.1" id="Capa_1" xmlns="http://www.w3.org/2000/svg" xmlns:xlink="http://www.w3.org/1999/xlink" x="0px" y="0px"
	 viewBox="0 0 100 36.3" style="enable-background:new 0 0 100 36.3;" xml:space="preserve">
<style type="text/css">
	.st0{fill:#FFFFFF;}
	.st1{fill:#ED3B3B;}
</style>
<g>
	<g>
		<g>
			<path class="st0" d="M27.8,15.4h1.5v7h4.3v1.3h-5.9v-8.3H27.8z"/>
			<path class="st0" d="M34.7,20.1v-4.7h1.5V20c0,1.7,0.8,2.4,2.1,2.4s2.1-0.7,2.1-2.4v-4.6H42v4.7c0,2.4-1.4,3.7-3.6,3.7
				C36.1,23.9,34.7,22.6,34.7,20.1z"/>
			<path class="st0" d="M51.8,23.8v-5.5l-2.7,3.2h-0.7l-2.7-3.1v5.4h-1.5v-8.3h1.3l3.3,4.2l3.2-4.2h1.3v8.3H51.8z"/>
			<path class="st0" d="M86.7,23.8v-5.5L84,21.5h-0.7l-2.7-3.1v5.4h-1.5v-8.3h1.3l3.3,4.2l3.2-4.2h1.3v8.3H86.7z"/>
			<path class="st0" d="M55.5,15.4H57v8.3h-1.5V15.4z"/>
			<path class="st0" d="M67.1,15.4v8.3h-1.3l-4.6-5.6v5.6h-1.5v-8.3H61l4.6,5.6v-5.6H67.1z"/>
			<path class="st0" d="M69.4,20.1v-4.7H71V20c0,1.7,0.8,2.4,2.1,2.4c1.3,0,2.1-0.7,2.1-2.4v-4.6h1.5v4.7c0,2.4-1.4,3.7-3.6,3.7
				C70.8,23.9,69.4,22.6,69.4,20.1z"/>
			<path class="st0" d="M99.2,23.9l-1-1c-0.7,0.6-1.7,1-2.8,1c-1.8,0-3-0.9-3-2.2c0-1,0.6-1.8,1.9-2.5c-0.7-0.7-0.9-1.2-0.9-1.8
				c0-1.2,1-2,2.4-2c1.3,0,2.2,0.7,2.2,1.8c0,0.9-0.5,1.5-1.7,2.2L98,21c0.2-0.4,0.4-0.9,0.5-1.4l1.2,0.4c-0.2,0.7-0.4,1.4-0.7,1.9
				l1,1L99.2,23.9z M97.3,22l-2.2-2.1c-1,0.5-1.3,1-1.3,1.6c0,0.7,0.7,1.2,1.7,1.2C96.1,22.7,96.7,22.5,97.3,22z M94.7,17.3
				c0,0.4,0.2,0.6,0.7,1.2c1-0.5,1.3-0.9,1.3-1.3c0-0.5-0.3-0.8-1-0.8C95.1,16.4,94.7,16.8,94.7,17.3z"/>
		</g>
	</g>
	<g>
		<g>
			<path class="st0" d="M8.6,33.6l0.5-1.2c0.7,0.5,1.7,0.9,2.7,0.9c1.3,0,1.8-0.5,1.8-1.1c0-1.8-4.9-0.6-4.9-3.7
				c0-1.3,1.1-2.5,3.4-2.5c1,0,2,0.3,2.8,0.7L14.4,28c-0.7-0.4-1.6-0.7-2.3-0.7c-1.3,0-1.8,0.5-1.8,1.1c0,1.8,4.9,0.6,4.9,3.7
				c0,1.3-1.1,2.5-3.4,2.5C10.6,34.6,9.3,34.2,8.6,33.6z"/>
			<path class="st0" d="M16.8,30.3c0-2.5,1.9-4.3,4.5-4.3c1.4,0,2.5,0.5,3.3,1.4l-1,0.9c-0.6-0.7-1.4-1-2.2-1c-1.7,0-3,1.2-3,2.9
				c0,1.7,1.2,2.9,3,2.9c0.9,0,1.6-0.3,2.2-1l1,1c-0.8,0.9-1.9,1.4-3.3,1.4C18.7,34.6,16.8,32.8,16.8,30.3z"/>
			<path class="st0" d="M32.1,34.5L30.4,32c-0.1,0-0.2,0-0.3,0h-1.9v2.4h-1.5v-8.3h3.4c2.2,0,3.5,1.1,3.5,3c0,1.3-0.6,2.2-1.8,2.6
				l1.9,2.7L32.1,34.5L32.1,34.5z M30,27.4h-1.8v3.3H30c1.4,0,2.1-0.6,2.1-1.7S31.4,27.4,30,27.4z"/>
			<path class="st0" d="M42.2,33.2v1.3H36v-8.3h6v1.3h-4.5v2.2h4V31h-4v2.3L42.2,33.2L42.2,33.2z"/>
			<path class="st0" d="M50.8,33.2v1.3h-6.2v-8.3h6.1v1.3h-4.5v2.2h4V31h-4v2.3L50.8,33.2L50.8,33.2z"/>
			<path class="st0" d="M60.5,26.1v8.3h-1.3l-4.6-5.6v5.6h-1.5v-8.3h1.3l4.6,5.6v-5.6C59,26.1,60.5,26.1,60.5,26.1z"/>
			<path class="st0" d="M64.6,33.6c0,0.3-0.1,0.5-0.3,1l-0.6,1.7h-1l0.5-1.8c-0.3-0.1-0.6-0.5-0.6-0.9c0-0.6,0.4-1,1-1
				S64.6,33,64.6,33.6z"/>
		</g>
	</g>
	<g>
		<path class="st1" d="M69.6,26.4h1.5v7h4.3v1.3h-5.9L69.6,26.4L69.6,26.4z"/>
		<path class="st1" d="M77,26.4h1.5v7h4.4v1.3H77V26.4z"/>
		<path class="st1" d="M83.8,30.5c0-2.5,1.9-4.3,4.5-4.3c1.4,0,2.5,0.5,3.3,1.4l-1,0.9c-0.6-0.7-1.4-1-2.2-1c-1.7,0-3,1.2-3,2.9
			s1.2,2.9,3,2.9c0.9,0,1.6-0.3,2.2-1l1,1c-0.8,0.9-1.9,1.4-3.3,1.4C85.7,34.8,83.8,33,83.8,30.5z"/>
	</g>
	<path class="st1" d="M28.3,8c-0.6-0.5-1-0.9-2-1.2c-0.1,0-0.1-0.2,0-0.2c0.8-0.3,1.5-0.7,1.9-1.2c0.5-0.5,0.8-1.2,0.8-2
		c0-0.9-0.4-1.7-1.1-2.3s-1.8-0.9-3.1-0.9h-6.4c-0.1,0-0.1,0.1-0.1,0.1v1.6c0,0.1,0,0.1,0.1,0.1h0.7c0.3,0,0.5,0.1,0.7,0.2
		C19.9,2.3,20,2.5,20,2.8v7.1L19.7,11c-0.8-1.8-1.4-2.7-1.8-3.6l-3-7.4H7.2v4h2.7L2.4,20.9H0v3.4h9.7V21h-2v-1.3L9,17h8.6l1.4,3.9
		h-2.5v3.5h10.2v-3.5h-2.9L22.9,19c-0.7-1.6-1.3-3.3-1.7-5l0,0l0.5,0.1c0.8,0.1,3.8,0.2,5.2-0.5c0.8-0.4,1.4-0.9,1.7-1.4
		c0.4-0.5,0.5-1.1,0.5-1.8C29.2,9.4,28.9,8.6,28.3,8z M9.7,13.9l3.6-7.2l3.2,7.2H9.7z M25.5,11.1c-0.3,0.3-0.7,0.4-1.2,0.4h-1.7V8.7
		c0-0.2,0.1-0.3,0.2-0.3c0.1-0.1,0.4-0.1,0.9-0.1c0.7,0,1.2,0,1.4,0.1c0.3,0.1,0.5,0.2,0.6,0.5c0.1,0.2,0.2,0.5,0.2,0.9
		C25.9,10.4,25.8,10.8,25.5,11.1z M25.5,5.2c-0.3,0.3-0.7,0.4-1.2,0.4h-1.7V2.8c0-0.2,0.1-0.3,0.2-0.3c0.1-0.1,0.4-0.1,0.9-0.1
		c0.7,0,1.2,0,1.4,0.1c0.3,0.1,0.5,0.2,0.6,0.5c0.1,0.2,0.2,0.5,0.2,0.9C25.9,4.5,25.8,4.9,25.5,5.2z"/>
</g>
</svg>
