<?xml version="1.0" encoding="utf-8"?>
<!-- Generator: Adobe Illustrator 28.2.0, SVG Export Plug-In . SVG Version: 6.00 Build 0)  -->
<svg version="1.1" id="Capa_1" xmlns="http://www.w3.org/2000/svg" xmlns:xlink="http://www.w3.org/1999/xlink" x="0px" y="0px"
	 viewBox="0 0 912.3 330.7" style="enable-background:new 0 0 912.3 330.7;" xml:space="preserve">
<style type="text/css">
	.st0{fill:#081877;}
	.st1{fill:#ED3B3B;}
</style>
<g>
	<g>
		<g>
			<path class="st0" d="M253.5,140.9h14.1v64h39.7v11.9h-53.8V140.9z"/>
			<path class="st0" d="M316.7,183.8v-42.8h14.1v42.3c0,15.6,7,22.3,19.3,22.3s19.2-6.7,19.2-22.3v-42.3h13.9v42.8
				c0,22.1-12.5,34.2-33.2,34.2C329.2,217.9,316.7,205.9,316.7,183.8z"/>
			<path class="st0" d="M472.6,216.8l-0.1-50.3l-24.9,29.3h-6.3l-24.9-28.6v49.7h-13.4v-75.9h11.6l30.1,38l29.6-38h11.6l0.1,75.9
				H472.6z"/>
			<path class="st0" d="M790.9,216.8l-0.1-50.3l-24.9,29.3h-6.3l-24.9-28.6v49.7h-13.4v-75.9h11.6l30.1,38l29.6-38h11.6l0.1,75.9
				H790.9z"/>
			<path class="st0" d="M506.4,140.9h14.1v75.9h-14.1V140.9z"/>
			<path class="st0" d="M611.8,140.9v75.9h-11.6l-41.9-51.4v51.4h-14v-75.9H556l41.9,51.4v-51.4H611.8z"/>
			<path class="st0" d="M633.3,183.8v-42.8h14.1v42.3c0,15.6,7,22.3,19.3,22.3c12.3,0,19.2-6.7,19.2-22.3v-42.3h13.9v42.8
				c0,22.1-12.5,34.2-33.2,34.2C645.8,217.9,633.3,205.9,633.3,183.8z"/>
			<path class="st0" d="M904.8,218l-9.5-9.2c-6.8,5.9-15.5,9.1-25.5,9.1c-16,0-27.6-8.3-27.6-20.3c0-9.4,5.2-16,17.6-23
				c-6.2-6.2-8.5-11.2-8.5-16.7c0-10.6,8.7-17.9,22-17.9c12.3,0,20.3,6.4,20.3,16.7c0,7.8-4.6,13.4-15.5,19.6l16.4,15.6
				c1.8-3.6,3.3-7.9,4.2-12.8l11,3.6c-1.4,6.6-3.7,12.5-6.8,17.3l9.5,9.1L904.8,218z M887.3,201.1l-20.1-19.2
				c-8.8,4.9-11.8,8.9-11.8,14.3c0,6.3,6.1,10.6,15.4,10.6C877.1,206.9,882.6,204.9,887.3,201.1z M863.6,157.7
				c0,3.4,1.4,5.9,6.8,11.3c8.8-4.8,11.6-7.9,11.6-12c0-4.3-3.1-7.3-8.8-7.3C867.2,149.7,863.6,153.1,863.6,157.7z"/>
		</g>
	</g>
	<g>
		<g>
			<path class="st0" d="M78.7,306.3l4.9-11c6.1,4.9,15.7,8.3,25,8.3c11.8,0,16.8-4.2,16.8-9.9c0-16.4-45.1-5.6-45.1-33.8
				c0-12.3,9.8-22.7,30.6-22.7c9.1,0,18.6,2.4,25.3,6.7l-4.4,11c-6.8-4-14.3-6-20.9-6c-11.7,0-16.5,4.6-16.5,10.3
				c0,16.2,45,5.6,45,33.5c0,12.1-9.9,22.6-30.7,22.6C96.8,315.4,85,311.8,78.7,306.3z"/>
			<path class="st0" d="M153.4,276.4c0-22.7,17.3-39,40.7-39c12.4,0,23,4.4,30,12.7l-9.1,8.6c-5.5-6-12.4-8.9-20.3-8.9
				c-15.7,0-27.1,11.1-27.1,26.7c0,15.6,11.4,26.7,27.1,26.7c7.9,0,14.7-2.9,20.3-9l9.1,8.7c-7,8.2-17.7,12.7-30.1,12.7
				C170.8,315.4,153.4,299.1,153.4,276.4z"/>
			<path class="st0" d="M292.9,314.4l-15.5-22.2c-1,0.1-2,0.1-2.9,0.1h-17.1v22.1h-14.1v-75.9h31.2c20,0,32.3,10.2,32.3,27
				c0,11.5-5.9,20-16.2,24l17.5,24.9H292.9z M273.8,250.4h-16.5v30.3h16.5c12.4,0,18.8-5.6,18.8-15.2S286.1,250.4,273.8,250.4z"/>
			<path class="st0" d="M384.9,302.5v11.8H328v-75.9h55.4v11.8h-41.3V270h36.6v11.6h-36.6v20.9H384.9z"/>
			<path class="st0" d="M463.1,302.5v11.8h-56.9v-75.9h55.4v11.8h-41.3V270h36.6v11.6h-36.6v20.9H463.1z"/>
			<path class="st0" d="M551.8,238.5v75.9h-11.6L498.3,263v51.4h-14v-75.9H496l41.9,51.4v-51.4H551.8z"/>
			<path class="st0" d="M589.6,306.1c0,2.4-0.5,4.3-2.5,9.3l-5.5,15.3h-8.8l4.3-16.6c-3-1.3-5.1-4.1-5.1-8c0-5.4,3.8-9,8.8-9
				C586,297.1,589.6,300.8,589.6,306.1z"/>
		</g>
	</g>
	<g>
		<path class="st1" d="M634.6,240.5h14.1v64h39.7v11.9h-53.8V240.5z"/>
		<path class="st1" d="M702.8,240.5h14.1v64h39.7v11.9h-53.8V240.5z"/>
		<path class="st1" d="M764.1,278.5c0-22.7,17.3-39,40.7-39c12.4,0,23,4.4,30,12.7l-9.1,8.6c-5.5-6-12.4-8.9-20.3-8.9
			c-15.7,0-27.1,11.1-27.1,26.7c0,15.6,11.4,26.7,27.1,26.7c7.9,0,14.7-2.9,20.3-9l9.1,8.7c-7,8.2-17.7,12.7-30.1,12.7
			C781.5,317.5,764.1,301.1,764.1,278.5z"/>
	</g>
	<path class="st1" d="M258,73.3c-5.1-4.8-9.5-8.5-18.6-11c-1-0.3-1-1.6-0.1-2c7.6-2.8,13.4-6.4,17.4-10.7c4.6-5,6.9-11.1,6.9-18.3
		c0-8.6-3.3-15.7-9.9-21.4c-6.6-5.7-16.1-8.5-28.5-8.5h-58.6c-0.5,0-1,0.5-1,1v14.3c0,0.6,0.4,1,1,1h6.1c2.6,0,4.6,0.6,6,1.8
		c1.4,1.2,2,3,2,5.4v64.4l-0.6,10.6c-7.5-16.5-12.5-24.3-16.2-33L135.5,0H65.9v36.5h24.3L22,190.5H0v30.9h88.4V191H70v-11.6
		l12.1-23.9h78l12.9,35.5h-22.7v31.9h92.8V191h-26.4l-7.5-17.7c-6.4-14.9-11.6-30.3-15.6-46l-0.1-0.4l4.9,1c6.9,0.5,35,2.3,47.4-4.4
		c7.3-3.9,12.5-8.3,15.8-13.1c3.3-4.8,4.9-10.4,4.9-16.7C266.6,85.5,263.7,78.7,258,73.3z M88.6,126.4l32.9-66l29.4,66H88.6z
		 M232.2,100.8c-2.8,2.4-6.5,3.6-11.2,3.6h-15.3V79.3c0-1.4,0.5-2.4,1.6-2.9c1.1-0.6,3.8-0.8,8.2-0.8c6.2,0,10.6,0.4,13.1,1.3
		c2.5,0.9,4.5,2.3,5.8,4.2c1.3,1.9,2,4.6,2,7.9C236.4,94.5,235,98.4,232.2,100.8z M232.2,47.1c-2.8,2.4-6.5,3.6-11.2,3.6h-15.3V25.6
		c0-1.4,0.5-2.4,1.6-2.9c1.1-0.6,3.8-0.8,8.2-0.8c6.2,0,10.6,0.4,13.1,1.3c2.5,0.9,4.5,2.3,5.8,4.2c1.3,1.9,2,4.6,2,7.9
		C236.4,40.8,235,44.7,232.2,47.1z"/>
</g>
</svg>
