<?xml version="1.0" encoding="UTF-8"?>
<svg id="Layer_1" data-name="Layer 1" xmlns="http://www.w3.org/2000/svg" version="1.1" viewBox="0 0 50 50">
  <defs>
    <style>
      .cls-1 {
        fill: #fff;
        stroke-width: 0px;
      }
    </style>
  </defs>
  <path class="cls-1" d="M49,39.8l-5.5-3.7-4.9-3.3c-1-.6-2.2-.4-2.9.5l-3.1,3.9c-.7.9-1.8,1.1-2.8.6-2.1-1.2-4.5-2.2-9.9-7.6s-6.5-7.9-7.6-9.9c-.5-.9-.3-2.1.6-2.8l3.9-3c.9-.7,1.1-2,.5-2.9l-3.3-4.9-3.8-5.7c-.6-1-1.9-1.3-2.9-.7L2.9,2.9c-1.2.7-2,1.9-2.4,3.2-1.2,4.4-1.4,14,14,29.4,15.4,15.4,25.1,15.2,29.4,14,1.3-.4,2.4-1.2,3.1-2.4l2.6-4.4c.7-1,.4-2.3-.6-2.9Z"/>
  <path class="cls-1" d="M28.4,7.8c8.1,0,14.6,6.6,14.7,14.7,0,.5.4.9.9.9s.9-.4.9-.9c0-9-7.3-16.4-16.4-16.4s-.9.4-.9.9c0,.4.4.8.8.8Z"/>
  <path class="cls-1" d="M28.4,12.9c5.2,0,9.5,4.2,9.5,9.5s.4.9.9.9.9-.4.9-.9c0-6.2-5-11.2-11.2-11.2s-.9.4-.9.9c0,.4.4.8.8.8Z"/>
  <path class="cls-1" d="M28.4,18.1c2.4,0,4.3,1.9,4.3,4.3s.4.9.9.9.9-.4.9-.9c0-3.3-2.7-6-6-6s-.9.4-.9.9c0,.4.4.8.8.8Z"/>
</svg>