<?xml version="1.0" encoding="utf-8"?>
<!-- Generator: Adobe Illustrator 28.2.0, SVG Export Plug-In . SVG Version: 6.00 Build 0)  -->
<svg version="1.1" id="Layer_1" xmlns="http://www.w3.org/2000/svg" xmlns:xlink="http://www.w3.org/1999/xlink" x="0px" y="0px"
	 viewBox="0 0 50 50" style="enable-background:new 0 0 50 50;" xml:space="preserve">
<style type="text/css">
	.st0{fill:#ED3B3B;}
	.st1{fill:#FFFFFF;}
</style>
<g>
	<g>
		<circle class="st0" cx="25" cy="25" r="25"/>
		<path class="st1" d="M34.9,13.4H15.1c-4.2,0-7.6,3.4-7.6,7.6v8.2c0,4.2,3.4,7.6,7.6,7.6H35c4.2,0,7.6-3.4,7.6-7.6V21
			C42.5,16.8,39.1,13.4,34.9,13.4z M31,25.6l-8.7,4.3c-0.4,0.1-1.5,0-1.5-0.5v-8.8c0-0.4,1.1-0.6,1.5-0.5l8.3,4.5
			C30.9,24.8,31.3,25.3,31,25.6z"/>
	</g>
</g>
</svg>
